<svg width="100" height="100" viewBox="0 0 100 100" fill="none" xmlns="https://www.w3.org/2000/svg">
<rect width="100" height="100" rx="20" fill="white"/>
<path d="M32.5446 44.3745C32.5446 45.3589 32.651 46.1572 32.8373 46.7425C33.0501 47.3279 33.3162 47.9664 33.6887 48.6582C33.8217 48.8711 33.875 49.0839 33.875 49.2702C33.875 49.5363 33.7153 49.8023 33.3694 50.0684L31.6932 51.1859C31.4537 51.3455 31.2142 51.4254 31.0014 51.4254C30.7353 51.4254 30.4692 51.2923 30.2032 51.0529C29.8307 50.6538 29.5114 50.228 29.2453 49.8023C28.9792 49.35 28.7132 48.8445 28.4205 48.2325C26.3451 50.6804 23.7376 51.9043 20.598 51.9043C18.363 51.9043 16.5803 51.2657 15.2765 49.9886C13.9728 48.7114 13.3076 47.0086 13.3076 44.88C13.3076 42.6184 14.1058 40.7825 15.7289 39.3989C17.3519 38.0154 19.5071 37.3236 22.2476 37.3236C23.1523 37.3236 24.0835 37.4034 25.068 37.5364C26.0524 37.6695 27.0635 37.8823 28.1278 38.1218V36.1795C28.1278 34.1573 27.7021 32.7471 26.8773 31.9223C26.0258 31.0975 24.5891 30.6984 22.5403 30.6984C21.609 30.6984 20.6512 30.8048 19.6667 31.0443C18.6823 31.2838 17.7244 31.5764 16.7932 31.9489C16.3674 32.1352 16.0482 32.2416 15.8619 32.2948C15.6757 32.348 15.5426 32.3746 15.4362 32.3746C15.0637 32.3746 14.8774 32.1086 14.8774 31.5498V30.2461C14.8774 29.8204 14.9307 29.5011 15.0637 29.3148C15.1967 29.1286 15.4362 28.9423 15.8087 28.7561C16.7399 28.2771 17.8574 27.878 19.1612 27.5588C20.4649 27.2129 21.8485 27.0532 23.3119 27.0532C26.4782 27.0532 28.793 27.7716 30.283 29.2084C31.7464 30.6452 32.4914 32.827 32.4914 35.7538V44.3745H32.5446ZM21.7421 48.4188C22.6201 48.4188 23.5248 48.2591 24.4826 47.9398C25.4405 47.6205 26.2919 47.0352 27.0103 46.237C27.436 45.7314 27.7553 45.1727 27.9149 44.5341C28.0746 43.8955 28.181 43.1239 28.181 42.2193V41.1018C27.4094 40.9155 26.5846 40.7559 25.7332 40.6495C24.8817 40.543 24.0569 40.4898 23.2321 40.4898C21.4494 40.4898 20.1457 40.8357 19.2676 41.5541C18.3896 42.2725 17.9639 43.2836 17.9639 44.6139C17.9639 45.8645 18.2832 46.7957 18.9483 47.4343C19.5869 48.0995 20.5182 48.4188 21.7421 48.4188ZM43.1076 51.2923C42.6287 51.2923 42.3094 51.2125 42.0966 51.0263C41.8837 50.8666 41.6975 50.4941 41.5378 49.9886L35.2851 29.4213C35.1255 28.8891 35.0457 28.5432 35.0457 28.357C35.0457 27.9313 35.2585 27.6918 35.6842 27.6918H38.2917C38.7973 27.6918 39.1432 27.7716 39.3294 27.9579C39.5423 28.1175 39.7019 28.49 39.8616 28.9955L44.3316 46.6095L48.4823 28.9955C48.6153 28.4634 48.775 28.1175 48.9878 27.9579C49.2007 27.7982 49.5732 27.6918 50.0521 27.6918H52.1807C52.6862 27.6918 53.0321 27.7716 53.245 27.9579C53.4578 28.1175 53.6441 28.49 53.7505 28.9955L57.9544 46.8223L62.5575 28.9955C62.7171 28.4634 62.9034 28.1175 63.0896 27.9579C63.3025 27.7982 63.6484 27.6918 64.1273 27.6918H66.6018C67.0275 27.6918 67.2669 27.9046 67.2669 28.357C67.2669 28.49 67.2403 28.623 67.2137 28.7827C67.1871 28.9423 67.1339 29.1552 67.0275 29.4479L60.6151 50.0152C60.4555 50.5473 60.2693 50.8932 60.0564 51.0529C59.8435 51.2125 59.4976 51.3189 59.0453 51.3189H56.7571C56.2516 51.3189 55.9057 51.2391 55.6928 51.0529C55.48 50.8666 55.2937 50.5207 55.1873 49.9886L51.0632 32.827L46.9657 49.962C46.8326 50.4941 46.673 50.84 46.4601 51.0263C46.2473 51.2125 45.8748 51.2923 45.3959 51.2923H43.1076ZM77.2978 52.0107C75.9143 52.0107 74.5307 51.8511 73.2003 51.5318C71.87 51.2125 70.8323 50.8666 70.1405 50.4675C69.7148 50.228 69.4221 49.962 69.3157 49.7225C69.2093 49.483 69.156 49.217 69.156 48.9775V47.6205C69.156 47.0618 69.3689 46.7957 69.768 46.7957C69.9277 46.7957 70.0873 46.8223 70.2469 46.8755C70.4066 46.9288 70.646 47.0352 70.9121 47.1416C71.8168 47.5407 72.8012 47.86 73.8389 48.0729C74.9032 48.2857 75.9409 48.3922 77.0052 48.3922C78.6814 48.3922 79.9852 48.0995 80.8898 47.5141C81.7944 46.9288 82.2734 46.0773 82.2734 44.9864C82.2734 44.2414 82.0339 43.6295 81.555 43.1239C81.076 42.6184 80.1714 42.1661 78.8677 41.7404L75.0096 40.543C73.0673 39.9311 71.6305 39.0264 70.7525 37.8291C69.8744 36.6584 69.4221 35.3546 69.4221 33.9711C69.4221 32.8536 69.6616 31.8691 70.1405 31.0177C70.6194 30.1663 71.258 29.4213 72.0562 28.8359C72.8544 28.2239 73.7591 27.7716 74.8234 27.4523C75.8877 27.133 77.0052 27 78.1759 27C78.7612 27 79.3732 27.0266 79.9585 27.1064C80.5705 27.1863 81.1293 27.2927 81.688 27.3991C82.2202 27.5321 82.7257 27.6652 83.2046 27.8248C83.6835 27.9845 84.0561 28.1441 84.3221 28.3038C84.6946 28.5166 84.9607 28.7295 85.1203 28.9689C85.28 29.1818 85.3598 29.4745 85.3598 29.847V31.0975C85.3598 31.6563 85.1469 31.9489 84.7478 31.9489C84.535 31.9489 84.1891 31.8425 83.7368 31.6296C82.2202 30.9379 80.5173 30.592 78.6282 30.592C77.1116 30.592 75.9143 30.8314 75.0894 31.337C74.2646 31.8425 73.8389 32.6141 73.8389 33.705C73.8389 34.45 74.105 35.0886 74.6371 35.5941C75.1693 36.0996 76.1537 36.6052 77.5639 37.0575L81.3421 38.2548C83.2578 38.8668 84.6414 39.7182 85.4662 40.8091C86.291 41.9 86.6902 43.1505 86.6902 44.5341C86.6902 45.6782 86.4507 46.7159 85.9984 47.6205C85.5194 48.5252 84.8809 49.3234 84.0561 49.962C83.2312 50.6272 82.2468 51.1061 81.1027 51.452C79.9053 51.8245 78.6548 52.0107 77.2978 52.0107Z" fill="#252F3E"/>
<path fill-rule="evenodd" clip-rule="evenodd" d="M82.3268 64.9421C73.573 71.4077 60.8548 74.84 49.9193 74.84C34.5935 74.84 20.7844 69.1727 10.3544 59.7537C9.52959 59.0087 10.2746 57.9977 11.2591 58.583C22.5405 65.1284 36.456 69.0929 50.8505 69.0929C60.5621 69.0929 71.2316 67.0707 81.0496 62.92C82.513 62.2548 83.7636 63.8778 82.3268 64.9421Z" fill="#FF9900"/>
<path fill-rule="evenodd" clip-rule="evenodd" d="M85.9718 60.7912C84.8543 59.3545 78.575 60.0995 75.7281 60.4453C74.8766 60.5518 74.7436 59.8068 75.5152 59.248C80.5173 55.7359 88.739 56.7469 89.6968 57.9177C90.6547 59.115 89.4307 67.3366 84.7479 71.2745C84.0295 71.8864 83.3377 71.5671 83.657 70.7689C84.7213 68.1348 87.0893 62.2014 85.9718 60.7912Z" fill="#FF9900"/>
</svg>
