<svg width="200" height="200" viewBox="0 0 200 200" fill="none" xmlns="http://www.w3.org/2000/svg">
<g filter="url(#filter0_d_201_1249)">
<rect x="50" y="40" width="100" height="100" rx="20" fill="white"/>
<path d="M82.5446 84.3745C82.5446 85.3589 82.651 86.1572 82.8373 86.7425C83.0501 87.3279 83.3162 87.9664 83.6887 88.6582C83.8217 88.8711 83.875 89.0839 83.875 89.2702C83.875 89.5363 83.7153 89.8023 83.3694 90.0684L81.6932 91.1859C81.4537 91.3455 81.2142 91.4254 81.0014 91.4254C80.7353 91.4254 80.4692 91.2923 80.2032 91.0529C79.8307 90.6538 79.5114 90.228 79.2453 89.8023C78.9792 89.35 78.7132 88.8445 78.4205 88.2325C76.3451 90.6804 73.7376 91.9043 70.598 91.9043C68.363 91.9043 66.5803 91.2657 65.2765 89.9886C63.9728 88.7114 63.3076 87.0086 63.3076 84.88C63.3076 82.6184 64.1058 80.7825 65.7289 79.3989C67.3519 78.0154 69.5071 77.3236 72.2476 77.3236C73.1523 77.3236 74.0835 77.4034 75.068 77.5364C76.0524 77.6695 77.0635 77.8823 78.1278 78.1218V76.1795C78.1278 74.1573 77.7021 72.7471 76.8773 71.9223C76.0258 71.0975 74.5891 70.6984 72.5403 70.6984C71.609 70.6984 70.6512 70.8048 69.6667 71.0443C68.6823 71.2838 67.7244 71.5764 66.7932 71.9489C66.3674 72.1352 66.0482 72.2416 65.8619 72.2948C65.6757 72.348 65.5426 72.3746 65.4362 72.3746C65.0637 72.3746 64.8774 72.1086 64.8774 71.5498V70.2461C64.8774 69.8204 64.9307 69.5011 65.0637 69.3148C65.1967 69.1286 65.4362 68.9423 65.8087 68.7561C66.7399 68.2771 67.8574 67.878 69.1612 67.5588C70.4649 67.2129 71.8485 67.0532 73.3119 67.0532C76.4782 67.0532 78.793 67.7716 80.283 69.2084C81.7464 70.6452 82.4914 72.827 82.4914 75.7538V84.3745H82.5446ZM71.7421 88.4188C72.6201 88.4188 73.5248 88.2591 74.4826 87.9398C75.4405 87.6205 76.2919 87.0352 77.0103 86.237C77.436 85.7314 77.7553 85.1727 77.9149 84.5341C78.0746 83.8955 78.181 83.1239 78.181 82.2193V81.1018C77.4094 80.9155 76.5846 80.7559 75.7332 80.6495C74.8817 80.543 74.0569 80.4898 73.2321 80.4898C71.4494 80.4898 70.1457 80.8357 69.2676 81.5541C68.3896 82.2725 67.9639 83.2836 67.9639 84.6139C67.9639 85.8645 68.2832 86.7957 68.9483 87.4343C69.5869 88.0995 70.5182 88.4188 71.7421 88.4188ZM93.1076 91.2923C92.6287 91.2923 92.3094 91.2125 92.0966 91.0263C91.8837 90.8666 91.6975 90.4941 91.5378 89.9886L85.2851 69.4213C85.1255 68.8891 85.0457 68.5432 85.0457 68.357C85.0457 67.9313 85.2585 67.6918 85.6842 67.6918H88.2917C88.7973 67.6918 89.1432 67.7716 89.3294 67.9579C89.5423 68.1175 89.7019 68.49 89.8616 68.9955L94.3316 86.6095L98.4823 68.9955C98.6153 68.4634 98.775 68.1175 98.9878 67.9579C99.2007 67.7982 99.5732 67.6918 100.052 67.6918H102.181C102.686 67.6918 103.032 67.7716 103.245 67.9579C103.458 68.1175 103.644 68.49 103.75 68.9955L107.954 86.8223L112.557 68.9955C112.717 68.4634 112.903 68.1175 113.09 67.9579C113.302 67.7982 113.648 67.6918 114.127 67.6918H116.602C117.027 67.6918 117.267 67.9046 117.267 68.357C117.267 68.49 117.24 68.623 117.214 68.7827C117.187 68.9423 117.134 69.1552 117.027 69.4479L110.615 90.0152C110.455 90.5473 110.269 90.8932 110.056 91.0529C109.844 91.2125 109.498 91.3189 109.045 91.3189H106.757C106.252 91.3189 105.906 91.2391 105.693 91.0529C105.48 90.8666 105.294 90.5207 105.187 89.9886L101.063 72.827L96.9657 89.962C96.8326 90.4941 96.673 90.84 96.4601 91.0263C96.2473 91.2125 95.8748 91.2923 95.3959 91.2923H93.1076ZM127.298 92.0107C125.914 92.0107 124.531 91.8511 123.2 91.5318C121.87 91.2125 120.832 90.8666 120.141 90.4675C119.715 90.228 119.422 89.962 119.316 89.7225C119.209 89.483 119.156 89.217 119.156 88.9775V87.6205C119.156 87.0618 119.369 86.7957 119.768 86.7957C119.928 86.7957 120.087 86.8223 120.247 86.8755C120.407 86.9288 120.646 87.0352 120.912 87.1416C121.817 87.5407 122.801 87.86 123.839 88.0729C124.903 88.2857 125.941 88.3922 127.005 88.3922C128.681 88.3922 129.985 88.0995 130.89 87.5141C131.794 86.9288 132.273 86.0773 132.273 84.9864C132.273 84.2414 132.034 83.6295 131.555 83.1239C131.076 82.6184 130.171 82.1661 128.868 81.7404L125.01 80.543C123.067 79.9311 121.631 79.0264 120.752 77.8291C119.874 76.6584 119.422 75.3546 119.422 73.9711C119.422 72.8536 119.662 71.8691 120.141 71.0177C120.619 70.1663 121.258 69.4213 122.056 68.8359C122.854 68.2239 123.759 67.7716 124.823 67.4523C125.888 67.133 127.005 67 128.176 67C128.761 67 129.373 67.0266 129.959 67.1064C130.571 67.1863 131.129 67.2927 131.688 67.3991C132.22 67.5321 132.726 67.6652 133.205 67.8248C133.684 67.9845 134.056 68.1441 134.322 68.3038C134.695 68.5166 134.961 68.7295 135.12 68.9689C135.28 69.1818 135.36 69.4745 135.36 69.847V71.0975C135.36 71.6563 135.147 71.9489 134.748 71.9489C134.535 71.9489 134.189 71.8425 133.737 71.6296C132.22 70.9379 130.517 70.592 128.628 70.592C127.112 70.592 125.914 70.8314 125.089 71.337C124.265 71.8425 123.839 72.6141 123.839 73.705C123.839 74.45 124.105 75.0886 124.637 75.5941C125.169 76.0996 126.154 76.6052 127.564 77.0575L131.342 78.2548C133.258 78.8668 134.641 79.7182 135.466 80.8091C136.291 81.9 136.69 83.1505 136.69 84.5341C136.69 85.6782 136.451 86.7159 135.998 87.6205C135.519 88.5252 134.881 89.3234 134.056 89.962C133.231 90.6272 132.247 91.1061 131.103 91.452C129.905 91.8245 128.655 92.0107 127.298 92.0107Z" fill="#252F3E"/>
<path fill-rule="evenodd" clip-rule="evenodd" d="M132.327 104.942C123.573 111.407 110.855 114.84 99.9193 114.84C84.5935 114.84 70.7844 109.172 60.3544 99.7534C59.5296 99.0084 60.2746 97.9973 61.2591 98.5827C72.5405 105.128 86.456 109.092 100.851 109.092C110.562 109.092 121.232 107.07 131.05 102.92C132.513 102.254 133.764 103.877 132.327 104.942Z" fill="#FF9900"/>
<path fill-rule="evenodd" clip-rule="evenodd" d="M135.972 100.791C134.854 99.3543 128.575 100.099 125.728 100.445C124.876 100.552 124.743 99.8066 125.515 99.2478C130.517 95.7357 138.739 96.7468 139.697 97.9175C140.654 99.1148 139.43 107.336 134.748 111.274C134.029 111.886 133.337 111.567 133.657 110.769C134.721 108.135 137.089 102.201 135.972 100.791Z" fill="#FF9900"/>
</g>
<defs>
<filter id="filter0_d_201_1249" x="0" y="0" width="200" height="200" filterUnits="userSpaceOnUse" color-interpolation-filters="sRGB">
<feFlood flood-opacity="0" result="BackgroundImageFix"/>
<feColorMatrix in="SourceAlpha" type="matrix" values="0 0 0 0 0 0 0 0 0 0 0 0 0 0 0 0 0 0 127 0" result="hardAlpha"/>
<feOffset dy="10"/>
<feGaussianBlur stdDeviation="25"/>
<feColorMatrix type="matrix" values="0 0 0 0 0 0 0 0 0 0 0 0 0 0 0 0 0 0 0.2 0"/>
<feBlend mode="normal" in2="BackgroundImageFix" result="effect1_dropShadow_201_1249"/>
<feBlend mode="normal" in="SourceGraphic" in2="effect1_dropShadow_201_1249" result="shape"/>
</filter>
</defs>
</svg>
