<svg width="100" height="100" viewBox="0 0 100 100" fill="none" xmlns="https://www.w3.org/2000/svg">
<rect width="100" height="100" rx="20" fill="white"/>
<path d="M20.1212 76.4531L38.8587 23.2789C39.0613 22.6205 39.5171 22.0635 40.0741 21.6583C40.6312 21.2532 41.2896 21.0506 41.9985 21H58.5585C58.8117 21 59.0143 21.0506 59.2169 21.1519C59.4194 21.2532 59.622 21.4051 59.7233 21.6077C59.8752 21.8103 59.9259 22.0128 59.9765 22.2661C60.0271 22.5193 59.9765 22.7218 59.8752 22.975L40.3274 78.1243C40.1754 78.4788 39.9222 78.7827 39.6184 78.9852C39.3145 79.1878 38.96 79.2891 38.5549 79.2891H22.1975C21.843 79.3397 21.4885 79.2384 21.1846 79.0865C20.8808 78.9346 20.5769 78.732 20.3744 78.4282C20.1718 78.1243 20.0199 77.8205 20.0199 77.466C19.9692 77.1621 20.0199 76.8076 20.1212 76.4531Z" fill="url(#paint0_linear_1664_311)"/>
<path d="M58.4567 78.3271L40.5294 61.1594C40.3775 61.0075 40.2762 60.8049 40.2256 60.6023C40.1749 60.3998 40.2256 60.1972 40.2762 59.9946C40.3775 59.7921 40.4788 59.6401 40.6813 59.4882C40.8839 59.3869 41.0865 59.2856 41.2891 59.2856H62.1536L70.0031 79.4412H60.9888C60.0266 79.4412 59.1151 79.0361 58.4567 78.3271Z" fill="url(#paint1_linear_1664_311)"/>
<path d="M61.1921 79.3904H77.4482C77.8534 79.3904 78.2585 79.2891 78.613 79.0865C78.9675 78.8839 79.2713 78.6307 79.5246 78.2762C79.7778 77.9217 79.9297 77.5672 79.9803 77.1621C80.031 76.757 79.9803 76.3518 79.879 75.9467L61.1921 22.975C60.9895 22.418 60.635 21.9116 60.1286 21.5571C59.6222 21.2026 59.0651 21 58.4574 21H41.8975C42.8597 21 43.5687 21.8609 43.9738 22.8231L62.4075 76.0986C62.6101 76.7063 62.5594 77.314 62.3569 77.9217C62.1037 78.5801 61.6985 79.0865 61.1921 79.3904Z" fill="url(#paint2_linear_1664_311)"/>
<defs>
<linearGradient id="paint0_linear_1664_311" x1="27.9353" y1="79.1549" x2="51.823" y2="20.8099" gradientUnits="userSpaceOnUse">
<stop stop-color="#0078D3"/>
<stop offset="1" stop-color="#114D8F"/>
</linearGradient>
<linearGradient id="paint1_linear_1664_311" x1="51.9015" y1="69.422" x2="60.3136" y2="69.422" gradientUnits="userSpaceOnUse">
<stop stop-color="#0078D3"/>
<stop offset="1" stop-color="#0065B1"/>
</linearGradient>
<linearGradient id="paint2_linear_1664_311" x1="60.9503" y1="21.0319" x2="60.9503" y2="79.4091" gradientUnits="userSpaceOnUse">
<stop stop-color="#3CCAF3"/>
<stop offset="1" stop-color="#2996E1"/>
</linearGradient>
</defs>
</svg>
