<svg width="263" height="262" viewBox="0 0 263 262" fill="none" xmlns="http://www.w3.org/2000/svg">
<path d="M131.444 0C59.6036 0 0.629883 58.9541 0.629883 130.771C0.629883 202.588 59.6036 261.543 131.444 261.543C203.285 261.543 262.259 202.588 262.259 130.771C262.259 58.9541 203.285 0 131.444 0ZM131.444 215.451C84.2654 215.451 46.7366 176.863 46.7366 130.771C46.7366 84.6796 85.3376 46.0914 131.444 46.0914C177.551 46.0914 216.153 84.6796 216.153 130.771C216.153 176.863 177.551 215.451 131.444 215.451Z" fill="url(#paint0_linear_201_1459)"/>
<path d="M131.353 46C84.1743 46 46.6455 84.5882 46.6455 130.68C46.6455 176.771 85.2465 215.36 131.353 215.36C177.46 215.36 216.062 176.771 216.062 130.68C216.062 84.5882 177.46 46 131.353 46ZM131.353 192.85C97.0413 192.85 69.1629 164.98 69.1629 130.68C69.1629 96.379 97.0413 68.5099 131.353 68.5099C165.665 68.5099 193.544 96.379 193.544 130.68C193.544 164.98 165.665 192.85 131.353 192.85Z" fill="#A1F157"/>
<path fill-rule="evenodd" clip-rule="evenodd" d="M115.668 114.794C115.668 111.153 119.573 108.845 122.765 110.599L152.24 126.805C155.548 128.624 155.548 133.376 152.24 135.195L122.765 151.401C119.573 153.155 115.668 150.847 115.668 147.206V114.794Z" fill="#A1F157"/>
<defs>
<linearGradient id="paint0_linear_201_1459" x1="131.445" y1="0" x2="131.445" y2="261.543" gradientUnits="userSpaceOnUse">
<stop stop-color="#763BEF"/>
<stop offset="1" stop-color="#6522ED"/>
</linearGradient>
</defs>
</svg>
