<svg width="42" height="42" viewBox="0 0 42 42" fill="none" xmlns="http://www.w3.org/2000/svg">
<circle cx="21" cy="21" r="21" fill="#A1F157"/>
<path fill-rule="evenodd" clip-rule="evenodd" d="M17 18.25C17 17.1891 17.4214 16.1717 18.1716 15.4216C18.9217 14.6714 19.9391 14.25 21 14.25C22.0609 14.25 23.0783 14.6714 23.8284 15.4216C24.5786 16.1717 25 17.1891 25 18.25C25 19.3109 24.5786 20.3283 23.8284 21.0784C23.0783 21.8286 22.0609 22.25 21 22.25C19.9391 22.25 18.9217 21.8286 18.1716 21.0784C17.4214 20.3283 17 19.3109 17 18.25Z" fill="#5912E4"/>
<path fill-rule="evenodd" clip-rule="evenodd" d="M12.5239 17.857C12.6948 15.7838 13.6391 13.8507 15.1693 12.4415C16.6995 11.0323 18.7037 10.25 20.7839 10.25H21.2159C23.2961 10.25 25.3003 11.0323 26.8305 12.4415C28.3607 13.8507 29.305 15.7838 29.4759 17.857C29.6661 20.1663 28.9527 22.4593 27.4859 24.253L22.6929 30.114C22.4878 30.3648 22.2295 30.567 21.9367 30.7057C21.6439 30.8445 21.3239 30.9165 20.9999 30.9165C20.6759 30.9165 20.3559 30.8445 20.0631 30.7057C19.7703 30.567 19.512 30.3648 19.3069 30.114L14.5139 24.253C13.047 22.4593 12.3336 20.1663 12.5239 17.857ZM20.7839 11.75C19.0804 11.7503 17.4392 12.391 16.1862 13.5451C14.9332 14.6992 14.1599 16.2822 14.0199 17.98C13.8615 19.9019 14.4552 21.8102 15.6759 23.303L20.4689 29.165C20.5333 29.2439 20.6145 29.3074 20.7065 29.351C20.7985 29.3947 20.8991 29.4173 21.0009 29.4173C21.1027 29.4173 21.2033 29.3947 21.2953 29.351C21.3873 29.3074 21.4685 29.2439 21.5329 29.165L26.3259 23.303C27.5459 21.8099 28.1388 19.9016 27.9799 17.98C27.8398 16.2821 27.0664 14.6989 25.8132 13.5448C24.56 12.3907 22.9186 11.75 21.2149 11.75H20.7839Z" fill="#5912E4"/>
</svg>
