<svg width="42" height="42" viewBox="0 0 42 42" fill="none" xmlns="http://www.w3.org/2000/svg">
<circle cx="21" cy="21" r="21" fill="#A1F157"/>
<mask id="path-2-inside-1_2565_27982" fill="white">
<path d="M26.8147 23.3892C26.4047 22.9629 25.9101 22.7349 25.3859 22.7349C24.866 22.7349 24.3671 22.9586 23.9402 23.385L22.6044 24.7146C22.4945 24.6555 22.3846 24.6007 22.2789 24.5458C22.1267 24.4698 21.983 24.398 21.8604 24.3221C20.6091 23.5285 19.472 22.4943 18.3813 21.1562C17.8529 20.4893 17.4978 19.9279 17.24 19.358C17.5866 19.0414 17.9079 18.7122 18.2207 18.3956C18.339 18.2774 18.4574 18.155 18.5758 18.0368C19.4635 17.1503 19.4635 16.0022 18.5758 15.1158L17.4217 13.9634C17.2907 13.8325 17.1554 13.6975 17.0286 13.5624C16.775 13.3007 16.5086 13.0305 16.2339 12.7772C15.8238 12.372 15.3334 12.1567 14.8177 12.1567C14.302 12.1567 13.8032 12.372 13.3804 12.7772C13.3762 12.7815 13.3762 12.7815 13.372 12.7857L11.9347 14.2335C11.3936 14.7738 11.085 15.4323 11.0174 16.1964C10.9159 17.4289 11.2795 18.5771 11.5585 19.3285C12.2433 21.1731 13.2663 22.8827 14.7924 24.7146C16.6439 26.9223 18.8717 28.6656 21.4165 29.894C22.3888 30.3541 23.6866 30.8986 25.1365 30.9915C25.2253 30.9957 25.3183 30.9999 25.4028 30.9999C26.3793 30.9999 27.1994 30.6495 27.842 29.9531C27.8462 29.9446 27.8547 29.9404 27.8589 29.932C28.0787 29.666 28.3323 29.4254 28.5987 29.1679C28.7804 28.9949 28.9664 28.8134 29.1482 28.6234C29.5667 28.1886 29.7865 27.6821 29.7865 27.1629C29.7865 26.6395 29.5625 26.1371 29.1355 25.715L26.8147 23.3892Z"/>
</mask>
<path d="M26.8147 23.3892C26.4047 22.9629 25.9101 22.7349 25.3859 22.7349C24.866 22.7349 24.3671 22.9586 23.9402 23.385L22.6044 24.7146C22.4945 24.6555 22.3846 24.6007 22.2789 24.5458C22.1267 24.4698 21.983 24.398 21.8604 24.3221C20.6091 23.5285 19.472 22.4943 18.3813 21.1562C17.8529 20.4893 17.4978 19.9279 17.24 19.358C17.5866 19.0414 17.9079 18.7122 18.2207 18.3956C18.339 18.2774 18.4574 18.155 18.5758 18.0368C19.4635 17.1503 19.4635 16.0022 18.5758 15.1158L17.4217 13.9634C17.2907 13.8325 17.1554 13.6975 17.0286 13.5624C16.775 13.3007 16.5086 13.0305 16.2339 12.7772C15.8238 12.372 15.3334 12.1567 14.8177 12.1567C14.302 12.1567 13.8032 12.372 13.3804 12.7772C13.3762 12.7815 13.3762 12.7815 13.372 12.7857L11.9347 14.2335C11.3936 14.7738 11.085 15.4323 11.0174 16.1964C10.9159 17.4289 11.2795 18.5771 11.5585 19.3285C12.2433 21.1731 13.2663 22.8827 14.7924 24.7146C16.6439 26.9223 18.8717 28.6656 21.4165 29.894C22.3888 30.3541 23.6866 30.8986 25.1365 30.9915C25.2253 30.9957 25.3183 30.9999 25.4028 30.9999C26.3793 30.9999 27.1994 30.6495 27.842 29.9531C27.8462 29.9446 27.8547 29.9404 27.8589 29.932C28.0787 29.666 28.3323 29.4254 28.5987 29.1679C28.7804 28.9949 28.9664 28.8134 29.1482 28.6234C29.5667 28.1886 29.7865 27.6821 29.7865 27.1629C29.7865 26.6395 29.5625 26.1371 29.1355 25.715L26.8147 23.3892Z" fill="#5912E4"/>
<path d="M27.8124 28.349L28.1573 28.7111L28.1615 28.707L27.8124 28.349ZM26.9965 29.1933L27.3615 29.535L27.3696 29.5263L27.3774 29.5172L26.9965 29.1933ZM25.2126 29.8602L25.2458 29.3613L25.2445 29.3612L25.2126 29.8602ZM21.9153 28.8724L21.6977 29.3226L21.6999 29.3236L21.9153 28.8724ZM15.6759 23.9928L15.2913 24.3124L15.2928 24.3142L15.6759 23.9928ZM12.6322 18.9317L13.1011 18.7579L13.1005 18.7565L12.6322 18.9317ZM12.1588 16.2892L11.6606 16.2466L11.6604 16.2483L12.1588 16.2892ZM12.7421 15.0356L13.0954 15.3894L13.0954 15.3894L12.7421 15.0356ZM14.1836 13.5961L13.8417 13.2314L13.8359 13.2368L13.8303 13.2423L14.1836 13.5961ZM15.4434 13.5919L15.7967 13.2381L15.4434 13.5919ZM15.456 13.6046L15.1027 13.9584L15.1087 13.9644L15.1149 13.9702L15.456 13.6046ZM16.217 14.3602L15.858 14.7082L15.8581 14.7083L16.217 14.3602ZM16.6185 14.7696L16.2598 15.118L16.2652 15.1234L16.6185 14.7696ZM17.7726 15.922L17.4193 16.2758L17.4193 16.2758L17.7726 15.922ZM17.409 17.5936L17.062 17.2336L17.0567 17.2387L17.0516 17.2439L17.409 17.5936ZM16.348 18.6235L16.0145 18.251L16.0043 18.2601L15.9947 18.2697L16.348 18.6235ZM16.3269 18.6446L16.6802 18.9984L16.7376 18.9411L16.7739 18.8685L16.3269 18.6446ZM16.107 19.6028L15.6303 19.7536L15.6328 19.7611L16.107 19.6028ZM16.1197 19.6408L15.6455 19.7991L15.651 19.8157L15.6576 19.8318L16.1197 19.6408ZM17.4851 21.8654L17.0925 22.175L17.1109 22.1982L17.1318 22.2192L17.4851 21.8654ZM17.4894 21.8696L17.8773 21.5542L17.861 21.5341L17.8427 21.5158L17.4894 21.8696ZM21.2432 25.2803L21.5107 24.8578L21.5102 24.8575L21.2432 25.2803ZM22.1816 25.7868L21.9182 26.2118L21.9378 26.2239L21.9583 26.2341L22.1816 25.7868ZM22.2324 25.8163L22.4557 25.369L22.2324 25.8163ZM25.9947 24.187L25.6414 24.5408L25.6414 24.5408L25.9947 24.187ZM28.3239 26.5128L27.9706 26.8666L27.9723 26.8684L28.3239 26.5128ZM28.3281 27.334C28.244 27.334 28.1495 27.3553 28.061 27.4105C28.0182 27.4372 27.9701 27.4762 27.9276 27.5319C27.8932 27.577 27.8249 27.6826 27.8249 27.8356C27.8249 27.9199 27.8468 28.0263 27.9177 28.1258C27.9898 28.2271 28.0872 28.2854 28.1762 28.3132C28.333 28.3621 28.4605 28.3193 28.5011 28.3041C28.6004 28.2669 28.6615 28.2077 28.6814 28.1879L27.9748 27.4802C27.9926 27.4625 28.0521 27.4044 28.1504 27.3676C28.1904 27.3526 28.3176 27.3098 28.4741 27.3586C28.563 27.3863 28.6602 27.4446 28.7323 27.5458C28.8031 27.6452 28.8249 27.7515 28.8249 27.8356C28.8249 27.9884 28.7568 28.0937 28.7226 28.1385C28.6804 28.1938 28.6327 28.2324 28.5905 28.2588C28.5031 28.3133 28.4101 28.334 28.3281 28.334V27.334ZM27.962 27.4936C27.8079 27.6592 27.6517 27.8073 27.4633 27.9911L28.1615 28.707C28.3366 28.5362 28.5186 28.3634 28.6943 28.1745L27.962 27.4936ZM27.4675 27.987C27.1899 28.2514 26.8954 28.5405 26.6157 28.8693L27.3774 29.5172C27.6219 29.2298 27.8853 28.9701 28.1572 28.7111L27.4675 27.987ZM26.6316 28.8515C26.3033 29.202 25.9344 29.3644 25.4071 29.3644V30.3644C26.1987 30.3644 26.8359 30.0963 27.3615 29.535L26.6316 28.8515ZM25.4071 29.3644C25.3404 29.3644 25.2897 29.3642 25.2458 29.3613L25.1794 30.3591C25.2623 30.3646 25.3469 30.3644 25.4071 30.3644V29.3644ZM25.2445 29.3612C24.0893 29.2874 22.9947 28.8338 22.1308 28.4213L21.6999 29.3236C22.586 29.7468 23.825 30.2726 25.1807 30.3592L25.2445 29.3612ZM22.1329 28.4223C19.8052 27.2971 17.7603 25.6994 16.0589 23.6715L15.2928 24.3142C17.0832 26.4482 19.2402 28.1346 21.6977 29.3226L22.1329 28.4223ZM16.0604 23.6733C14.6472 21.9725 13.7159 20.4167 13.1011 18.7579L12.1634 19.1054C12.8252 20.891 13.8215 22.5434 15.2913 24.3123L16.0604 23.6733ZM13.1005 18.7565C12.7232 17.7477 12.6017 17.0053 12.6571 16.3301L11.6604 16.2483C11.589 17.1181 11.755 18.0135 12.1639 19.1068L13.1005 18.7565ZM12.6569 16.3319C12.6892 15.9553 12.8282 15.6562 13.0954 15.3894L12.3888 14.6817C11.9543 15.1157 11.7129 15.6354 11.6606 16.2466L12.6569 16.3319ZM13.0954 15.3894L14.5369 13.95L13.8303 13.2423L12.3888 14.6817L13.0954 15.3894ZM14.5256 13.9609C14.6754 13.8205 14.779 13.7964 14.8262 13.7964V12.7964C14.4422 12.7964 14.1061 12.9835 13.8417 13.2314L14.5256 13.9609ZM14.8262 13.7964C14.8566 13.7964 14.8949 13.8053 14.9438 13.8321C14.9942 13.8597 15.0445 13.9002 15.0901 13.9457L15.7967 13.2381C15.6302 13.0719 15.2929 12.7964 14.8262 12.7964V13.7964ZM15.0901 13.9457C15.0922 13.9478 15.0943 13.9499 15.0964 13.9521C15.0985 13.9542 15.1006 13.9563 15.1027 13.9584L15.8093 13.2508C15.8072 13.2487 15.8051 13.2466 15.803 13.2445C15.8009 13.2423 15.7988 13.2402 15.7967 13.2381L15.0901 13.9457ZM15.1149 13.9702C15.3631 14.2018 15.6011 14.4433 15.858 14.7082L16.5759 14.0121C16.3171 13.7452 16.0647 13.4886 15.7971 13.239L15.1149 13.9702ZM15.8581 14.7083C15.9252 14.7776 15.9932 14.8465 16.0601 14.9144C16.1275 14.9827 16.1938 15.0499 16.2598 15.118L16.9772 14.4213C16.9081 14.3501 16.8391 14.2801 16.7722 14.2123C16.7049 14.144 16.6397 14.0779 16.5758 14.012L15.8581 14.7083ZM16.2652 15.1234L17.4193 16.2758L18.1259 15.5682L16.9718 14.4158L16.2652 15.1234ZM17.4193 16.2758C17.5958 16.4521 17.6087 16.5474 17.6087 16.5763C17.6087 16.6051 17.5958 16.7004 17.4193 16.8767L18.1259 17.5844C18.3974 17.3132 18.6087 16.978 18.6087 16.5763C18.6087 16.1746 18.3974 15.8393 18.1259 15.5682L17.4193 16.2758ZM17.4193 16.8767C17.2879 17.0079 17.1809 17.119 17.062 17.2336L17.7561 17.9535C17.8824 17.8318 18.0121 17.698 18.1259 17.5844L17.4193 16.8767ZM17.0516 17.2439C16.6985 17.605 16.3696 17.9331 16.0145 18.251L16.6815 18.996C17.062 18.6554 17.4094 18.3082 17.7665 17.9432L17.0516 17.2439ZM15.9947 18.2697C16.0071 18.2573 16.0173 18.2487 16.0207 18.2459C16.0219 18.2449 16.0233 18.2437 16.0211 18.2455C16.02 18.2465 16.0157 18.25 16.0107 18.2542C15.9929 18.2695 15.9276 18.3253 15.8798 18.4208L16.7739 18.8685C16.7304 18.9555 16.6714 19.005 16.661 19.0139C16.6578 19.0166 16.6555 19.0185 16.6563 19.0179C16.6565 19.0177 16.6565 19.0177 16.6569 19.0174C16.6572 19.0171 16.6577 19.0167 16.6582 19.0163C16.6593 19.0154 16.6609 19.0141 16.6628 19.0125C16.6702 19.0063 16.6846 18.994 16.7013 18.9773L15.9947 18.2697ZM15.9736 18.2908C15.7165 18.5475 15.5881 18.8297 15.5554 19.1121C15.5242 19.3809 15.5849 19.61 15.6303 19.7536L16.5838 19.4521C16.5531 19.355 16.5419 19.2866 16.5488 19.2272C16.5541 19.1814 16.5737 19.1047 16.6802 18.9984L15.9736 18.2908ZM15.6328 19.7611C15.6349 19.7675 15.637 19.7738 15.6391 19.7801C15.6412 19.7865 15.6433 19.7928 15.6455 19.7991L16.594 19.4825C16.5919 19.4762 16.5898 19.4698 16.5877 19.4635C16.5855 19.4572 16.5834 19.4508 16.5813 19.4445L15.6328 19.7611ZM15.6576 19.8318C15.9804 20.6127 16.4311 21.3363 17.0925 22.175L17.8777 21.5557C17.2541 20.765 16.8593 20.121 16.5818 19.4498L15.6576 19.8318ZM17.1318 22.2192L17.136 22.2234L17.8427 21.5158L17.8384 21.5116L17.1318 22.2192ZM17.1014 22.185C18.2971 23.6558 19.5668 24.813 20.9762 25.703L21.5102 24.8575C20.2057 24.0337 19.0151 22.9537 17.8773 21.5542L17.1014 22.185ZM20.9757 25.7027C21.1738 25.8281 21.3737 25.9275 21.5398 26.0104L21.9865 25.1157C21.8144 25.0298 21.6593 24.9519 21.5107 24.8578L20.9757 25.7027ZM21.5398 26.0104C21.6973 26.0891 21.819 26.1503 21.9182 26.2118L22.445 25.3618C22.2991 25.2714 22.1333 25.189 21.9865 25.1157L21.5398 26.0104ZM21.9583 26.2341C21.9481 26.2291 21.9412 26.225 21.9393 26.2239C21.9378 26.223 21.9372 26.2226 21.9423 26.2257C21.9457 26.2279 21.9547 26.2335 21.9647 26.2394C21.9751 26.2456 21.9904 26.2544 22.009 26.2637L22.4557 25.369C22.4659 25.3741 22.4728 25.3781 22.4747 25.3793C22.4762 25.3801 22.4768 25.3806 22.4717 25.3774C22.4684 25.3753 22.4593 25.3696 22.4493 25.3637C22.439 25.3575 22.4236 25.3487 22.405 25.3395L21.9583 26.2341ZM22.009 26.2637C22.2127 26.3654 22.424 26.4219 22.6509 26.4219V25.4219C22.5988 25.4219 22.5395 25.4108 22.4557 25.369L22.009 26.2637ZM25.9862 24.1785C25.6329 24.5324 25.6329 24.5324 25.6329 24.5324C25.6329 24.5324 25.6329 24.5324 25.6329 24.5324C25.6329 24.5324 25.6329 24.5324 25.6329 24.5324C25.6329 24.5324 25.6329 24.5324 25.6329 24.5324C25.6329 24.5324 25.6329 24.5324 25.6329 24.5324C25.633 24.5324 25.633 24.5324 25.633 24.5324C25.633 24.5325 25.6331 24.5325 25.6331 24.5326C25.6332 24.5327 25.6334 24.5329 25.6337 24.5331C25.6341 24.5336 25.6348 24.5342 25.6356 24.535C25.6371 24.5366 25.6393 24.5387 25.6414 24.5408L26.3479 23.8332C26.3458 23.8311 26.3437 23.8289 26.3421 23.8273C26.3413 23.8266 26.3407 23.8259 26.3402 23.8254C26.34 23.8252 26.3398 23.825 26.3397 23.8249C26.3396 23.8248 26.3395 23.8248 26.3395 23.8247C26.3395 23.8247 26.3395 23.8247 26.3395 23.8247C26.3395 23.8247 26.3395 23.8247 26.3395 23.8247C26.3395 23.8247 26.3395 23.8247 26.3395 23.8247C26.3395 23.8247 26.3395 23.8247 26.3395 23.8247C26.3395 23.8247 26.3395 23.8247 26.3395 23.8247C26.3395 23.8247 26.3395 23.8247 25.9862 24.1785ZM25.6414 24.5408L27.9706 26.8666L28.6772 26.159L26.3479 23.8332L25.6414 24.5408ZM27.9723 26.8684C28.1322 27.0265 28.1509 27.1251 28.151 27.1683C28.1511 27.2139 28.1307 27.3183 27.9681 27.4871L28.6881 28.181C28.9567 27.9023 29.1519 27.5614 29.151 27.1659C29.15 26.768 28.951 26.4297 28.6755 26.1573L27.9723 26.8684ZM26.8147 23.3892L26.094 24.0824L26.1004 24.089L26.1069 24.0955L26.8147 23.3892ZM23.9402 23.385L24.6457 24.0937L24.6468 24.0926L23.9402 23.385ZM22.6044 24.7146L22.1308 25.5954L22.7841 25.9467L23.3098 25.4234L22.6044 24.7146ZM22.2789 24.5458L22.7397 23.6583L22.7327 23.6546L22.7256 23.6511L22.2789 24.5458ZM21.8604 24.3221L21.3248 25.1666L21.3336 25.172L21.8604 24.3221ZM18.3813 21.1562L17.5974 21.7773L17.6062 21.788L18.3813 21.1562ZM17.24 19.358L16.5656 18.6196L16.0297 19.109L16.3289 19.7703L17.24 19.358ZM18.2207 18.3956L17.5141 17.6879L17.5094 17.6927L18.2207 18.3956ZM18.5758 15.1158L19.2824 14.4081L19.2824 14.4081L18.5758 15.1158ZM17.4217 13.9634L16.7151 14.671L16.7151 14.671L17.4217 13.9634ZM17.0286 13.5624L17.7576 12.8779L17.7522 12.8721L17.7467 12.8664L17.0286 13.5624ZM16.2339 12.7772L15.5309 13.4885L15.5433 13.5007L15.5561 13.5125L16.2339 12.7772ZM13.3804 12.7772L12.6884 12.0554L12.6811 12.0624L12.6739 12.0696L13.3804 12.7772ZM13.372 12.7857L12.6654 12.0781L12.6623 12.0812L13.372 12.7857ZM11.9347 14.2335L12.6413 14.9412L12.6444 14.938L11.9347 14.2335ZM11.0174 16.1964L10.0213 16.1082L10.0208 16.1143L11.0174 16.1964ZM11.5585 19.3285L12.496 18.9804L12.4959 18.9804L11.5585 19.3285ZM14.7924 24.7146L14.024 25.3547L14.0262 25.3572L14.7924 24.7146ZM21.4165 29.894L20.9818 30.7946L20.9888 30.7979L21.4165 29.894ZM25.1365 30.9915L25.0726 31.9894L25.0808 31.9899L25.089 31.9903L25.1365 30.9915ZM27.842 29.9531L28.577 30.6311L28.6728 30.5272L28.7361 30.4008L27.842 29.9531ZM27.8589 29.932L27.0881 29.2948L27.0156 29.3825L26.9647 29.4842L27.8589 29.932ZM28.5987 29.1679L27.9091 28.4437L27.9036 28.449L28.5987 29.1679ZM29.1482 28.6234L28.4277 27.9299L28.4257 27.932L29.1482 28.6234ZM29.1355 25.715L28.4276 26.4214L28.4325 26.4262L29.1355 25.715ZM27.5355 22.696C26.9655 22.1034 26.2208 21.7349 25.3859 21.7349V23.7349C25.5994 23.7349 25.8439 23.8223 26.094 24.0824L27.5355 22.696ZM25.3859 21.7349C24.5593 21.7349 23.8163 22.0955 23.2336 22.6773L24.6468 24.0926C24.918 23.8218 25.1726 23.7349 25.3859 23.7349V21.7349ZM23.2347 22.6762L21.8989 24.0059L23.3098 25.4234L24.6457 24.0937L23.2347 22.6762ZM23.0779 23.8339C22.9611 23.771 22.8252 23.7027 22.7397 23.6583L21.818 25.4333C21.9439 25.4986 22.0279 25.54 22.1308 25.5954L23.0779 23.8339ZM22.7256 23.6511C22.5626 23.5698 22.4631 23.5191 22.3872 23.4721L21.3336 25.172C21.5028 25.277 21.6907 25.3698 21.8322 25.4405L22.7256 23.6511ZM22.396 23.4776C21.2488 22.75 20.19 21.7924 19.1565 20.5244L17.6062 21.788C18.754 23.1962 19.9694 24.3069 21.3248 25.1665L22.396 23.4776ZM19.1651 20.5352C18.6717 19.9124 18.3661 19.421 18.151 18.9457L16.3289 19.7703C16.6296 20.4348 17.0341 21.0661 17.5975 21.7772L19.1651 20.5352ZM17.9143 20.0964C18.2843 19.7585 18.6263 19.4078 18.932 19.0984L17.5094 17.6927C17.1894 18.0165 16.8889 18.3243 16.5656 18.6196L17.9143 20.0964ZM18.9273 19.1032C18.9901 19.0405 19.0524 18.9771 19.1111 18.9175C19.1708 18.8568 19.2268 18.7998 19.2824 18.7444L17.8692 17.3292C17.8063 17.3919 17.744 17.4552 17.6854 17.5148C17.6257 17.5755 17.5696 17.6325 17.5141 17.688L18.9273 19.1032ZM19.2824 18.7444C19.8818 18.1458 20.2416 17.3927 20.2416 16.5763C20.2416 15.7598 19.8818 15.0067 19.2824 14.4081L17.8692 15.8234C18.1575 16.1112 18.2416 16.3754 18.2416 16.5763C18.2416 16.7771 18.1575 17.0413 17.8692 17.3292L19.2824 18.7444ZM19.2824 14.4081L18.1283 13.2558L16.7151 14.671L17.8692 15.8234L19.2824 14.4081ZM18.1283 13.2558C17.9952 13.1228 17.8715 12.9992 17.7576 12.8779L16.2995 14.2468C16.4393 14.3957 16.5862 14.5422 16.7151 14.671L18.1283 13.2558ZM17.7467 12.8664C17.4906 12.6022 17.2081 12.3153 16.9116 12.042L15.5561 13.5125C15.8091 13.7458 16.0593 13.9991 16.3105 14.2583L17.7467 12.8664ZM16.9368 12.066C16.3642 11.5001 15.6294 11.1567 14.8177 11.1567V13.1567C15.0375 13.1567 15.2834 13.2439 15.5309 13.4885L16.9368 12.066ZM14.8177 11.1567C14.0088 11.1567 13.2702 11.4977 12.6884 12.0554L14.0725 13.4991C14.3362 13.2463 14.5952 13.1567 14.8177 13.1567V11.1567ZM12.6739 12.0696C12.6717 12.0717 12.6707 12.0728 12.6696 12.0739C12.6686 12.0749 12.6675 12.076 12.6654 12.0781L14.0786 13.4933C14.0807 13.4912 14.0818 13.4901 14.0828 13.4891C14.0839 13.488 14.0849 13.487 14.087 13.4849L12.6739 12.0696ZM12.6623 12.0812L11.225 13.529L12.6444 14.938L14.0817 13.4902L12.6623 12.0812ZM11.2281 13.5259C10.521 14.232 10.1097 15.1097 10.0213 16.1082L12.0135 16.2845C12.0604 15.7549 12.2663 15.3157 12.6413 14.9412L11.2281 13.5259ZM10.0208 16.1143C9.90057 17.5746 10.3305 18.8942 10.621 19.6766L12.4959 18.9804C12.2285 18.26 11.9313 17.2833 12.014 16.2784L10.0208 16.1143ZM10.621 19.6765C11.3522 21.6459 12.4393 23.4523 14.024 25.3547L15.5607 24.0746C14.0933 22.313 13.1345 20.7002 12.496 18.9804L10.621 19.6765ZM14.0262 25.3572C15.9666 27.6709 18.3065 29.5032 20.9818 30.7945L21.8512 28.9934C19.4368 27.828 17.3212 26.1737 15.5586 24.072L14.0262 25.3572ZM20.9888 30.7979C21.9848 31.2692 23.425 31.8839 25.0726 31.9894L25.2004 29.9935C23.9481 29.9133 22.7927 29.4389 21.8443 28.9901L20.9888 30.7979ZM25.089 31.9903C25.1746 31.9944 25.2908 31.9999 25.4028 31.9999V29.9999C25.3457 29.9999 25.2759 29.997 25.184 29.9926L25.089 31.9903ZM25.4028 31.9999C26.647 31.9999 27.7374 31.5411 28.577 30.6311L27.107 29.275C26.6614 29.758 26.1117 29.9999 25.4028 29.9999V31.9999ZM28.7361 30.4008C28.692 30.489 28.6428 30.5536 28.6087 30.5939C28.5919 30.6137 28.5777 30.6288 28.5692 30.6376C28.5649 30.6421 28.5615 30.6457 28.5595 30.6476C28.5578 30.6494 28.5563 30.6508 28.557 30.6501C28.5571 30.65 28.5593 30.6478 28.5619 30.6453C28.5646 30.6425 28.5689 30.6382 28.574 30.6329C28.584 30.6224 28.5997 30.6056 28.618 30.5841C28.655 30.5404 28.7068 30.4721 28.7531 30.3797L26.9647 29.4842C27.0089 29.396 27.058 29.3314 27.0921 29.2911C27.1089 29.2713 27.1232 29.2562 27.1316 29.2474C27.1359 29.2429 27.1394 29.2393 27.1414 29.2374C27.1431 29.2356 27.1445 29.2342 27.1438 29.2349C27.1438 29.235 27.1415 29.2372 27.139 29.2398C27.1362 29.2425 27.132 29.2468 27.1269 29.2521C27.1169 29.2626 27.1011 29.2794 27.0829 29.3009C27.0459 29.3446 26.9941 29.4129 26.9478 29.5053L28.7361 30.4008ZM28.6297 30.5691C28.8059 30.3558 29.0127 30.1586 29.2937 29.8868L27.9036 28.449C27.652 28.6922 27.3515 28.9762 27.0881 29.2948L28.6297 30.5691ZM29.2882 29.8922C29.4756 29.7138 29.6739 29.5204 29.8707 29.3148L28.4257 27.932C28.259 28.1063 28.0853 28.276 27.9091 28.4437L29.2882 29.8922ZM29.8687 29.3169C30.4374 28.726 30.7865 27.9798 30.7865 27.1629H28.7865C28.7865 27.3844 28.696 27.6512 28.4277 27.9299L29.8687 29.3169ZM30.7865 27.1629C30.7865 26.3356 30.4278 25.5864 29.8386 25.0039L28.4325 26.4262C28.6972 26.6879 28.7865 26.9434 28.7865 27.1629H30.7865ZM29.8434 25.0087L27.5226 22.6829L26.1069 24.0955L28.4276 26.4214L29.8434 25.0087Z" fill="#5912E4" mask="url(#path-2-inside-1_2565_27982)"/>
<path d="M21.8096 15.7576C22.9171 15.9434 23.9232 16.4668 24.7264 17.2688C25.5296 18.0708 26.0496 19.0755 26.2398 20.1814C26.2863 20.46 26.5272 20.6542 26.802 20.6542C26.8358 20.6542 26.8654 20.6499 26.8992 20.6457C27.2121 20.5951 27.4192 20.2996 27.3685 19.9872C27.1402 18.6491 26.5061 17.4292 25.5381 16.4626C24.57 15.4959 23.3483 14.8628 22.0083 14.6348C21.6955 14.5842 21.4038 14.791 21.3488 15.0992C21.2939 15.4073 21.4968 15.707 21.8096 15.7576Z" fill="#5912E4"/>
<path d="M30.9914 19.8224C30.6152 17.619 29.5752 15.6139 27.9773 14.0184C26.3794 12.4228 24.3715 11.3844 22.1648 11.0087C21.8562 10.9538 21.5645 11.1649 21.5096 11.473C21.4589 11.7854 21.666 12.0766 21.9788 12.1315C23.9487 12.465 25.7453 13.3979 27.1741 14.8204C28.603 16.2471 29.533 18.0411 29.8669 20.0082C29.9134 20.2868 30.1544 20.4809 30.4292 20.4809C30.463 20.4809 30.4926 20.4767 30.5264 20.4725C30.835 20.426 31.0463 20.1306 30.9914 19.8224Z" fill="#5912E4"/>
</svg>
