<svg width="262" height="262" viewBox="0 0 262 262" fill="none" xmlns="http://www.w3.org/2000/svg">
<path d="M130.815 0C58.9737 0 0 58.9541 0 130.771C0 202.588 58.9737 261.543 130.815 261.543C202.656 261.543 261.63 202.588 261.63 130.771C261.63 58.9541 202.656 0 130.815 0ZM130.815 215.451C83.6355 215.451 46.1067 176.863 46.1067 130.771C46.1067 84.6796 84.7077 46.0914 130.815 46.0914C176.921 46.0914 215.523 84.6796 215.523 130.771C215.523 176.863 176.921 215.451 130.815 215.451Z" fill="url(#paint0_linear_201_1460)"/>
<path d="M130.723 46C83.5444 46 46.0156 84.5882 46.0156 130.68C46.0156 176.771 84.6166 215.36 130.723 215.36C176.83 215.36 215.432 176.771 215.432 130.68C215.432 84.5882 176.83 46 130.723 46ZM130.723 192.85C96.4114 192.85 68.533 164.98 68.533 130.68C68.533 96.379 96.4114 68.5099 130.723 68.5099C165.036 68.5099 192.914 96.379 192.914 130.68C192.914 164.98 165.036 192.85 130.723 192.85Z" fill="#A1F157"/>
<path fill-rule="evenodd" clip-rule="evenodd" d="M115.038 114.794C115.038 111.153 118.943 108.845 122.135 110.599L151.61 126.805C154.918 128.624 154.918 133.376 151.61 135.195L122.135 151.401C118.943 153.155 115.038 150.847 115.038 147.206V114.794Z" fill="white"/>
<defs>
<linearGradient id="paint0_linear_201_1460" x1="130.815" y1="0" x2="130.815" y2="261.543" gradientUnits="userSpaceOnUse">
<stop stop-color="#763BEF"/>
<stop offset="1" stop-color="#6522ED"/>
</linearGradient>
</defs>
</svg>
