<svg width="200" height="200" viewBox="0 0 200 200" fill="none" xmlns="http://www.w3.org/2000/svg">
<g filter="url(#filter0_d_201_1251)">
<rect x="50" y="40" width="100" height="100" rx="20" fill="white"/>
<mask id="mask0_201_1251" style="mask-type:luminance" maskUnits="userSpaceOnUse" x="60" y="62" width="80" height="56">
<path d="M60 62H140V117.882H60V62Z" fill="#00A1E0"/>
</mask>
<g mask="url(#mask0_201_1251)">
<path fill-rule="evenodd" clip-rule="evenodd" d="M93.218 68.1176C95.8003 65.4294 99.3945 63.7647 103.365 63.7647C108.659 63.7647 113.247 66.7059 115.718 71.0882C117.911 70.1079 120.286 69.6017 122.689 69.6029C132.218 69.6029 139.953 77.3971 139.953 87.0147C139.953 96.6324 132.218 104.426 122.689 104.426C121.524 104.426 120.389 104.309 119.277 104.088C117.115 107.941 112.983 110.559 108.277 110.559C106.361 110.563 104.469 110.128 102.747 109.288C100.556 114.435 95.4533 118.053 89.5121 118.053C83.3062 118.053 78.0415 114.141 76.0121 108.641C75.1089 108.832 74.1882 108.928 73.265 108.927C65.8827 108.927 59.9121 102.868 59.9121 95.4271C59.9121 90.4271 62.6003 86.0741 66.5886 83.7212C65.7425 81.7721 65.307 79.6695 65.3092 77.5447C65.3092 68.9565 72.2798 62.0153 80.868 62.0153C85.8974 62.0153 90.3974 64.4123 93.2209 68.1329" fill="#00A1E0"/>
</g>
<path fill-rule="evenodd" clip-rule="evenodd" d="M71.5709 91.0588C71.5206 91.19 71.5889 91.2174 71.605 91.2406C71.7553 91.3494 71.908 91.4282 72.0609 91.5168C72.8786 91.9491 73.6492 92.0756 74.455 92.0756C76.0962 92.0756 77.1168 91.2021 77.1168 89.7962V89.7685C77.1168 88.4685 75.9639 87.995 74.8874 87.6568L74.7465 87.6112C73.9318 87.3471 73.2289 87.1171 73.2289 86.5818V86.5544C73.2289 86.0956 73.6406 85.7574 74.2759 85.7574C74.9818 85.7574 75.823 85.9923 76.3612 86.2897C76.3612 86.2897 76.5206 86.3926 76.5786 86.2388C76.61 86.1556 76.8845 85.4212 76.9139 85.3388C76.945 85.2526 76.8903 85.1876 76.8342 85.1541C76.2165 84.7776 75.3636 84.5218 74.4812 84.5218L74.3174 84.5223C72.8145 84.5223 71.7645 85.4312 71.7645 86.7312V86.7591C71.7645 88.1297 72.9233 88.5768 74.0056 88.8856L74.1797 88.9397C74.968 89.1821 75.6503 89.3926 75.6503 89.9456V89.9732C75.6503 90.4821 75.2062 90.8615 74.4945 90.8615C74.2177 90.8615 73.3356 90.8568 72.3797 90.2526C72.2642 90.1853 72.1983 90.1368 72.1092 90.0824C72.0621 90.0538 71.9445 90.0024 71.8933 90.1565L71.5697 91.0565M95.5992 91.0565C95.5489 91.1876 95.6171 91.215 95.6339 91.2382C95.7836 91.3471 95.9368 91.4259 96.0897 91.5144C96.9074 91.9468 97.678 92.0732 98.4839 92.0732C100.125 92.0732 101.146 91.1997 101.146 89.7938V89.7662C101.146 88.4662 99.9956 87.9926 98.9162 87.6544L98.7753 87.6088C97.9606 87.3447 97.2577 87.1147 97.2577 86.5794V86.5521C97.2577 86.0932 97.6695 85.755 98.3047 85.755C99.0106 85.755 99.8489 85.99 100.39 86.2874C100.39 86.2874 100.549 86.3903 100.608 86.2365C100.639 86.1532 100.914 85.4188 100.94 85.3365C100.972 85.2503 100.917 85.1853 100.861 85.1518C100.243 84.7753 99.39 84.5194 98.5077 84.5194L98.3436 84.52C96.8406 84.52 95.7906 85.4288 95.7906 86.7288V86.7568C95.7906 88.1273 96.9495 88.5744 98.0318 88.8832L98.2056 88.9373C98.9968 89.1797 99.6762 89.3903 99.6762 89.9432V89.9709C99.6762 90.4797 99.2321 90.8591 98.5203 90.8591C98.243 90.8591 97.3586 90.8544 96.4056 90.2503C96.29 90.1829 96.2224 90.1365 96.1347 90.08C96.105 90.0612 95.9665 90.0071 95.9192 90.1541L95.5956 91.0541M112.007 88.3012C112.007 89.0953 111.859 89.7218 111.569 90.1659C111.28 90.6041 110.843 90.8188 110.234 90.8188C109.625 90.8188 109.19 90.6059 108.904 90.1688C108.617 89.7276 108.472 89.0982 108.472 88.3041C108.472 87.51 108.618 86.8865 108.904 86.4482C109.189 86.0129 109.622 85.8041 110.234 85.8041C110.846 85.8041 111.281 86.015 111.569 86.4482C111.861 86.8865 112.007 87.51 112.007 88.3041M113.378 86.8306C113.243 86.3747 113.034 85.9747 112.754 85.6394C112.475 85.3041 112.122 85.0335 111.702 84.8394C111.284 84.6438 110.79 84.5453 110.231 84.5453C109.672 84.5453 109.181 84.6444 108.76 84.8394C108.343 85.0347 107.987 85.3041 107.707 85.6394C107.429 85.9747 107.219 86.3747 107.084 86.8306C106.95 87.2835 106.882 87.7776 106.882 88.3041C106.882 88.8306 106.95 89.3247 107.084 89.7776C107.218 90.2335 107.428 90.6335 107.707 90.9688C107.987 91.3041 108.343 91.5718 108.76 91.7629C109.181 91.9535 109.675 92.0506 110.231 92.0506C110.787 92.0506 111.281 91.9535 111.699 91.7629C112.116 91.5724 112.472 91.3041 112.752 90.9688C113.031 90.6335 113.24 90.2335 113.375 89.7776C113.509 89.3247 113.577 88.8306 113.577 88.3041C113.577 87.7806 113.509 87.2835 113.375 86.8306M124.64 90.5953C124.595 90.4621 124.465 90.5124 124.465 90.5124C124.266 90.5885 124.053 90.6591 123.827 90.6944C123.598 90.7303 123.344 90.7482 123.077 90.7482C122.415 90.7482 121.885 90.5509 121.509 90.16C121.129 89.7688 120.918 89.1394 120.921 88.2865C120.923 87.51 121.11 86.9276 121.447 86.4806C121.779 86.0394 122.291 85.81 122.968 85.81C123.532 85.81 123.965 85.8756 124.418 86.0173C124.418 86.0173 124.525 86.0641 124.577 85.9226C124.697 85.5903 124.786 85.3521 124.915 84.9873C124.951 84.8829 124.862 84.8388 124.829 84.8262C124.652 84.7568 124.232 84.6429 123.914 84.595C123.617 84.5497 123.273 84.5262 122.885 84.5262C122.309 84.5262 121.797 84.6247 121.359 84.82C120.92 85.015 120.55 85.2847 120.256 85.62C119.962 85.9553 119.738 86.3553 119.588 86.8112C119.439 87.2641 119.364 87.7612 119.364 88.2876C119.364 89.4229 119.67 90.3435 120.276 91.0171C120.882 91.6935 121.794 92.0347 122.982 92.0347C123.685 92.0347 124.406 91.8926 124.923 91.6876C124.923 91.6876 125.022 91.64 124.979 91.5247L124.641 90.5953M127.038 87.5365C127.104 87.0953 127.224 86.7276 127.414 86.4423C127.699 86.0071 128.132 85.7688 128.741 85.7688C129.35 85.7688 129.753 86.0082 130.041 86.4423C130.232 86.7291 130.316 87.11 130.347 87.5365L127.023 87.5359L127.038 87.5365ZM131.656 86.5659C131.539 86.1276 131.25 85.6835 131.062 85.4806C130.762 85.16 130.47 84.9335 130.179 84.81C129.759 84.6312 129.307 84.5395 128.85 84.5403C128.27 84.5403 127.744 84.6382 127.317 84.8374C126.891 85.0379 126.532 85.3109 126.25 85.6521C125.968 85.9932 125.756 86.3962 125.62 86.8579C125.485 87.3138 125.417 87.8138 125.417 88.3373C125.417 88.8726 125.488 89.3697 125.627 89.8197C125.768 90.2726 125.995 90.6697 126.301 90.9991C126.607 91.3315 126.998 91.5903 127.468 91.7726C127.936 91.9535 128.504 92.0473 129.154 92.0453C130.495 92.0409 131.201 91.7423 131.489 91.5806C131.54 91.5518 131.589 91.5021 131.528 91.3588L131.225 90.5088C131.179 90.3821 131.051 90.4279 131.051 90.4279C130.718 90.5521 130.248 90.775 129.145 90.7721C128.424 90.7709 127.892 90.5582 127.557 90.225C127.215 89.8838 127.045 89.3868 127.018 88.6809L131.665 88.6844C131.665 88.6844 131.788 88.6832 131.8 88.5638C131.805 88.5144 131.959 87.6109 131.662 86.5668L131.656 86.5659ZM89.8909 87.5365C89.9565 87.0953 90.0777 86.7276 90.2674 86.4423C90.5521 86.0071 90.985 85.7688 91.5939 85.7688C92.2027 85.7688 92.6056 86.0082 92.8939 86.4423C93.0847 86.7291 93.1683 87.11 93.1997 87.5365L89.8762 87.5359L89.8909 87.5365ZM94.5086 86.5659C94.3921 86.1276 94.1027 85.6835 93.9145 85.4806C93.6145 85.16 93.3233 84.9335 93.0321 84.81C92.6117 84.6312 92.1595 84.5395 91.7027 84.5403C91.1233 84.5403 90.5968 84.6382 90.1703 84.8374C89.7439 85.0379 89.385 85.3109 89.1027 85.6521C88.8212 85.9932 88.6086 86.3962 88.4733 86.8579C88.3383 87.3138 88.2703 87.8138 88.2703 88.3373C88.2703 88.8726 88.3406 89.3697 88.4809 89.8197C88.6215 90.2726 88.8486 90.6697 89.1515 90.9991C89.4574 91.3315 89.8486 91.5903 90.3192 91.7726C90.7868 91.9535 91.3515 92.0473 92.0045 92.0453C93.3456 92.0409 94.0515 91.7423 94.3397 91.5806C94.3909 91.5518 94.4397 91.5021 94.3789 91.3588L94.0759 90.5088C94.0292 90.3821 93.9009 90.4279 93.9009 90.4279C93.5686 90.5521 93.098 90.775 91.995 90.7721C91.2774 90.7709 90.7421 90.5582 90.4068 90.225C90.0656 89.8838 89.895 89.3868 89.8686 88.6809L94.5156 88.6844C94.5156 88.6844 94.638 88.6832 94.6506 88.5638C94.6556 88.5144 94.8097 87.6109 94.5118 86.5668L94.5086 86.5659ZM79.8615 90.5659C79.6795 90.4206 79.6542 90.385 79.5939 90.2906C79.5018 90.1485 79.4547 89.9465 79.4547 89.6876C79.4547 89.2818 79.59 88.9876 79.8695 88.7906C79.8665 88.7912 80.2695 88.4435 81.2165 88.4553C81.6381 88.4628 82.0586 88.4987 82.4753 88.5626V90.6715H82.4759C82.4759 90.6715 81.8877 90.7982 81.223 90.8382C80.2789 90.895 79.8612 90.5665 79.8642 90.5673L79.8615 90.5659ZM81.7086 87.3012C81.5203 87.2874 81.2762 87.2806 80.985 87.2806C80.588 87.2806 80.2027 87.33 79.8439 87.4271C79.4821 87.5247 79.1556 87.6759 78.8762 87.8771C78.596 88.0769 78.3656 88.3386 78.2027 88.6418C78.0383 88.9476 77.9545 89.3065 77.9545 89.7123C77.9545 90.1241 78.0259 90.48 78.1671 90.7712C78.3054 91.06 78.5137 91.3097 78.773 91.4976C79.0309 91.6853 79.3495 91.8241 79.7171 91.9065C80.0818 91.9897 80.4936 92.0318 80.9465 92.0318C81.423 92.0318 81.8965 91.9918 82.3553 91.9144C82.7461 91.847 83.1354 91.7713 83.523 91.6873C83.6777 91.6518 83.8495 91.605 83.8495 91.605C83.9642 91.5759 83.9553 91.4532 83.9553 91.4532L83.9527 87.2179C83.9527 86.2885 83.7045 85.5973 83.2145 85.1709C82.7262 84.7444 82.0115 84.5297 81.085 84.5297C80.738 84.5297 80.1762 84.5768 79.8409 84.6441C79.8409 84.6441 78.8292 84.8406 78.4115 85.1676C78.4115 85.1676 78.3197 85.2241 78.3697 85.3521L78.6992 86.2344C78.74 86.3488 78.8515 86.3097 78.8515 86.3097C78.8515 86.3097 78.8865 86.2959 78.9277 86.2715C79.8189 85.7862 80.9483 85.8009 80.9483 85.8009C81.4483 85.8009 81.8365 85.9024 82.0953 86.1009C82.3486 86.2953 82.4777 86.5891 82.4777 87.2068V87.4029C82.0806 87.3453 81.713 87.3121 81.713 87.3121L81.7086 87.3012ZM119.062 84.91C119.068 84.8945 119.072 84.8778 119.072 84.8609C119.072 84.844 119.069 84.8273 119.062 84.8117C119.056 84.7961 119.046 84.782 119.034 84.7702C119.022 84.7584 119.008 84.7491 118.992 84.7429C118.913 84.7129 118.518 84.6297 118.215 84.6109C117.633 84.5744 117.309 84.6726 117.018 84.8032C116.731 84.9329 116.412 85.1415 116.236 85.3826L116.235 84.8179C116.235 84.7403 116.18 84.6776 116.102 84.6776H114.914C114.837 84.6776 114.781 84.7403 114.781 84.8179V91.7297C114.781 91.767 114.796 91.8028 114.822 91.8292C114.849 91.8556 114.884 91.8705 114.922 91.8706H116.139C116.177 91.8705 116.213 91.8556 116.239 91.8292C116.265 91.8028 116.28 91.767 116.28 91.7297V88.2591C116.28 87.7944 116.331 87.3326 116.433 87.0415C116.534 86.7535 116.671 86.5238 116.839 86.3591C117 86.2 117.197 86.082 117.413 86.015C117.615 85.9568 117.825 85.9273 118.036 85.9273C118.279 85.9273 118.545 85.9897 118.545 85.9897C118.634 85.9997 118.684 85.945 118.714 85.8644C118.794 85.6523 119.02 85.0174 119.064 84.8909" fill="#FFFFFE"/>
<path fill-rule="evenodd" clip-rule="evenodd" d="M107.689 81.72C107.538 81.6745 107.385 81.6382 107.23 81.6112C107.022 81.5764 106.811 81.5601 106.6 81.5623C105.761 81.5623 105.099 81.7994 104.635 82.2676C104.174 82.7323 103.86 83.4403 103.702 84.3718L103.646 84.6862H102.592C102.592 84.6862 102.464 84.6809 102.437 84.8212L102.264 85.7859C102.252 85.8782 102.292 85.9359 102.415 85.9353H103.44L102.4 91.7421C102.319 92.2097 102.225 92.5944 102.122 92.8859C102.02 93.1735 101.921 93.3891 101.799 93.5456C101.68 93.6971 101.568 93.8085 101.374 93.8735C101.214 93.9273 101.03 93.9521 100.828 93.9521C100.716 93.9521 100.566 93.9332 100.456 93.9112C100.346 93.8894 100.288 93.8647 100.206 93.83C100.206 93.83 100.085 93.7841 100.038 93.9047C99.9996 94.0032 99.7263 94.7547 99.694 94.8476C99.661 94.9394 99.7072 95.0118 99.7654 95.0326C99.9019 95.0815 100.003 95.1126 100.189 95.1565C100.447 95.2173 100.665 95.2212 100.869 95.2212C101.296 95.2212 101.685 95.1612 102.008 95.0447C102.332 94.9273 102.615 94.7229 102.865 94.4462C103.135 94.1476 103.305 93.835 103.468 93.4085C103.629 92.9859 103.766 92.4612 103.876 91.8497L104.921 85.9353H106.449C106.449 85.9353 106.578 85.94 106.605 85.8003L106.778 84.8356C106.79 84.7432 106.75 84.6856 106.626 84.6862H105.143C105.15 84.6526 105.218 84.1309 105.388 83.6397C105.461 83.43 105.597 83.2609 105.713 83.1447C105.822 83.0341 105.955 82.9511 106.102 82.9029C106.263 82.8531 106.431 82.8289 106.6 82.8312C106.74 82.8312 106.877 82.8479 106.981 82.8697C107.125 82.9003 107.181 82.9165 107.218 82.9276C107.37 82.9738 107.39 82.9291 107.42 82.8559L107.774 81.8818C107.811 81.7771 107.722 81.7329 107.689 81.72ZM86.9613 91.7544C86.9613 91.8321 86.906 91.8953 86.8284 91.8953H85.5981C85.5201 91.8953 85.4648 91.8321 85.4648 91.7544V81.8521C85.4648 81.7747 85.5201 81.7121 85.5981 81.7121H86.8284C86.906 81.7121 86.9613 81.7747 86.9613 81.8521V91.7544Z" fill="#FFFFFE"/>
</g>
<defs>
<filter id="filter0_d_201_1251" x="0" y="0" width="200" height="200" filterUnits="userSpaceOnUse" color-interpolation-filters="sRGB">
<feFlood flood-opacity="0" result="BackgroundImageFix"/>
<feColorMatrix in="SourceAlpha" type="matrix" values="0 0 0 0 0 0 0 0 0 0 0 0 0 0 0 0 0 0 127 0" result="hardAlpha"/>
<feOffset dy="10"/>
<feGaussianBlur stdDeviation="25"/>
<feColorMatrix type="matrix" values="0 0 0 0 0 0 0 0 0 0 0 0 0 0 0 0 0 0 0.2 0"/>
<feBlend mode="normal" in2="BackgroundImageFix" result="effect1_dropShadow_201_1251"/>
<feBlend mode="normal" in="SourceGraphic" in2="effect1_dropShadow_201_1251" result="shape"/>
</filter>
</defs>
</svg>
