<svg width="100" height="100" viewBox="0 0 100 100" fill="none" xmlns="http://www.w3.org/2000/svg">
<rect width="100" height="100" rx="20" fill="white"/>
<mask id="mask0_1664_310" style="mask-type:luminance" maskUnits="userSpaceOnUse" x="10" y="22" width="80" height="56">
<path d="M10 22H90V77.8824H10V22Z" fill="#00A1E0"/>
</mask>
<g mask="url(#mask0_1664_310)">
<path fill-rule="evenodd" clip-rule="evenodd" d="M43.2177 28.1175C45.8001 25.4293 49.3942 23.7645 53.3648 23.7645C58.6589 23.7645 63.2472 26.7057 65.7177 31.0881C67.9108 30.1077 70.2861 29.6016 72.6883 29.6028C82.2177 29.6028 89.953 37.3969 89.953 47.0145C89.953 56.6322 82.2177 64.4263 72.6883 64.4263C71.5236 64.4263 70.3883 64.3093 69.2766 64.0881C67.1148 67.941 62.9825 70.5587 58.2766 70.5587C56.3606 70.5625 54.4692 70.1278 52.7472 69.2881C50.556 74.4351 45.453 78.0528 39.5119 78.0528C33.306 78.0528 28.0413 74.141 26.0119 68.641C25.1086 68.8316 24.1879 68.9275 23.2648 68.9269C15.8825 68.9269 9.91187 62.8681 9.91187 55.4269C9.91187 50.4269 12.6001 46.074 16.5883 43.721C15.7422 41.7719 15.3067 39.6694 15.3089 37.5445C15.3089 28.9563 22.2795 22.0151 30.8677 22.0151C35.8972 22.0151 40.3972 24.4122 43.2207 28.1328" fill="#00A1E0"/>
</g>
<path fill-rule="evenodd" clip-rule="evenodd" d="M21.5707 51.0589C21.5204 51.1901 21.5886 51.2175 21.6048 51.2407C21.7551 51.3495 21.9077 51.4284 22.0607 51.5169C22.8783 51.9492 23.6489 52.0757 24.4548 52.0757C26.096 52.0757 27.1166 51.2022 27.1166 49.7963V49.7686C27.1166 48.4686 25.9636 47.9951 24.8872 47.6569L24.7463 47.6113C23.9316 47.3472 23.2286 47.1172 23.2286 46.5819V46.5545C23.2286 46.0957 23.6404 45.7575 24.2757 45.7575C24.9816 45.7575 25.8227 45.9925 26.361 46.2898C26.361 46.2898 26.5204 46.3928 26.5783 46.2389C26.6098 46.1557 26.8842 45.4213 26.9136 45.3389C26.9448 45.2528 26.8901 45.1878 26.8339 45.1542C26.2163 44.7778 25.3633 44.5219 24.481 44.5219L24.3172 44.5225C22.8142 44.5225 21.7642 45.4313 21.7642 46.7313V46.7592C21.7642 48.1298 22.923 48.5769 24.0054 48.8857L24.1795 48.9398C24.9677 49.1822 25.6501 49.3928 25.6501 49.9457V49.9734C25.6501 50.4822 25.206 50.8616 24.4942 50.8616C24.2174 50.8616 23.3354 50.8569 22.3795 50.2528C22.2639 50.1854 22.198 50.1369 22.1089 50.0825C22.0619 50.0539 21.9442 50.0025 21.893 50.1566L21.5695 51.0566M45.5989 51.0566C45.5486 51.1878 45.6169 51.2151 45.6336 51.2384C45.7833 51.3472 45.9366 51.426 46.0895 51.5145C46.9072 51.9469 47.6777 52.0734 48.4836 52.0734C50.1248 52.0734 51.1454 51.1998 51.1454 49.7939V49.7663C51.1454 48.4663 49.9954 47.9928 48.916 47.6545L48.7751 47.6089C47.9604 47.3448 47.2574 47.1148 47.2574 46.5795V46.5522C47.2574 46.0934 47.6692 45.7551 48.3045 45.7551C49.0104 45.7551 49.8486 45.9901 50.3898 46.2875C50.3898 46.2875 50.5492 46.3904 50.6074 46.2366C50.6386 46.1534 50.9133 45.4189 50.9398 45.3366C50.9713 45.2504 50.9163 45.1854 50.8604 45.1519C50.2427 44.7754 49.3898 44.5195 48.5074 44.5195L48.3433 44.5201C46.8404 44.5201 45.7904 45.4289 45.7904 46.7289V46.7569C45.7904 48.1275 46.9492 48.5745 48.0316 48.8834L48.2054 48.9375C48.9966 49.1798 49.676 49.3904 49.676 49.9434V49.971C49.676 50.4798 49.2319 50.8592 48.5201 50.8592C48.2427 50.8592 47.3583 50.8545 46.4054 50.2504C46.2898 50.1831 46.2222 50.1366 46.1345 50.0801C46.1048 50.0613 45.9663 50.0072 45.9189 50.1542L45.5954 51.0542M62.0072 48.3013C62.0072 49.0954 61.8589 49.7219 61.5689 50.166C61.2795 50.6042 60.8424 50.8189 60.2336 50.8189C59.6248 50.8189 59.1895 50.606 58.9042 50.1689C58.6169 49.7278 58.4719 49.0984 58.4719 48.3042C58.4719 47.5101 58.6177 46.8866 58.9042 46.4484C59.1889 46.0131 59.6219 45.8042 60.2336 45.8042C60.8454 45.8042 61.2807 46.0151 61.5689 46.4484C61.8607 46.8866 62.0072 47.5101 62.0072 48.3042M63.3777 46.8307C63.2427 46.3748 63.0336 45.9748 62.7542 45.6395C62.4745 45.3042 62.1219 45.0336 61.7013 44.8395C61.2836 44.6439 60.7895 44.5454 60.2307 44.5454C59.6719 44.5454 59.1807 44.6445 58.7601 44.8395C58.3424 45.0348 57.9866 45.3042 57.7072 45.6395C57.4283 45.9748 57.2189 46.3748 57.0836 46.8307C56.9498 47.2836 56.8819 47.7778 56.8819 48.3042C56.8819 48.8307 56.9498 49.3248 57.0836 49.7778C57.218 50.2336 57.4277 50.6336 57.7072 50.9689C57.9869 51.3042 58.3424 51.5719 58.7601 51.7631C59.1807 51.9536 59.6748 52.0507 60.2307 52.0507C60.7866 52.0507 61.2807 51.9536 61.6983 51.7631C62.116 51.5725 62.4719 51.3042 62.7513 50.9689C63.0304 50.6336 63.2395 50.2336 63.3748 49.7778C63.5083 49.3248 63.5763 48.8307 63.5763 48.3042C63.5763 47.7807 63.5083 47.2836 63.3748 46.8307M74.6395 50.5954C74.5945 50.4622 74.4645 50.5125 74.4645 50.5125C74.2654 50.5886 74.0527 50.6592 73.8263 50.6945C73.598 50.7304 73.3439 50.7484 73.0763 50.7484C72.4145 50.7484 71.8851 50.551 71.5086 50.1601C71.1292 49.7689 70.9174 49.1395 70.9204 48.2866C70.9224 47.5101 71.1101 46.9278 71.4469 46.4807C71.7792 46.0395 72.291 45.8101 72.9674 45.8101C73.5322 45.8101 73.9645 45.8757 74.4174 46.0175C74.4174 46.0175 74.5248 46.0642 74.5763 45.9228C74.6966 45.5904 74.7854 45.3522 74.9145 44.9875C74.951 44.8831 74.8616 44.8389 74.8289 44.8263C74.6513 44.7569 74.2319 44.6431 73.9142 44.5951C73.6172 44.5498 73.273 44.5263 72.8848 44.5263C72.3083 44.5263 71.7966 44.6248 71.3583 44.8201C70.9201 45.0151 70.5495 45.2848 70.2554 45.6201C69.9613 45.9554 69.7377 46.3554 69.5877 46.8113C69.4392 47.2642 69.3642 47.7613 69.3642 48.2878C69.3642 49.4231 69.6701 50.3436 70.276 51.0172C70.8819 51.6936 71.7936 52.0348 72.9819 52.0348C73.6848 52.0348 74.4054 51.8928 74.923 51.6878C74.923 51.6878 75.0219 51.6401 74.9789 51.5248L74.6407 50.5954M77.0377 47.5366C77.1033 47.0954 77.2242 46.7278 77.4142 46.4425C77.6986 46.0072 78.1319 45.7689 78.7407 45.7689C79.3495 45.7689 79.7524 46.0084 80.0407 46.4425C80.2319 46.7292 80.3154 47.1101 80.3466 47.5366L77.023 47.536L77.0377 47.5366ZM81.6554 46.566C81.5386 46.1278 81.2495 45.6836 81.0613 45.4807C80.7613 45.1601 80.4701 44.9336 80.1789 44.8101C79.7585 44.6314 79.3063 44.5396 78.8495 44.5404C78.2701 44.5404 77.7436 44.6384 77.3172 44.8375C76.8907 45.0381 76.5319 45.311 76.2495 45.6522C75.9674 45.9934 75.7554 46.3963 75.6201 46.8581C75.4848 47.3139 75.4166 47.8139 75.4166 48.3375C75.4166 48.8728 75.4874 49.3698 75.6269 49.8198C75.7677 50.2728 75.9945 50.6698 76.3004 50.9992C76.6063 51.3316 76.9974 51.5904 77.468 51.7728C77.9357 51.9536 78.5033 52.0475 79.1533 52.0454C80.4945 52.041 81.2004 51.7425 81.4886 51.5807C81.5401 51.5519 81.5886 51.5022 81.528 51.3589L81.2251 50.5089C81.1786 50.3822 81.0504 50.4281 81.0504 50.4281C80.718 50.5522 80.2474 50.7751 79.1445 50.7722C78.4239 50.771 77.8916 50.5584 77.5563 50.2251C77.2151 49.8839 77.0445 49.3869 77.018 48.681L81.6651 48.6845C81.6651 48.6845 81.7874 48.6834 81.8001 48.5639C81.8051 48.5145 81.9592 47.611 81.6616 46.5669L81.6554 46.566ZM39.8907 47.5366C39.9563 47.0954 40.0774 46.7278 40.2672 46.4425C40.5519 46.0072 40.9848 45.7689 41.5936 45.7689C42.2024 45.7689 42.6054 46.0084 42.8936 46.4425C43.0845 46.7292 43.168 47.1101 43.1995 47.5366L39.876 47.536L39.8907 47.5366ZM44.5083 46.566C44.3919 46.1278 44.1024 45.6836 43.9142 45.4807C43.6142 45.1601 43.323 44.9336 43.0319 44.8101C42.6115 44.6314 42.1592 44.5396 41.7024 44.5404C41.123 44.5404 40.5966 44.6384 40.1701 44.8375C39.7436 45.0381 39.3848 45.311 39.1024 45.6522C38.821 45.9934 38.6083 46.3963 38.473 46.8581C38.338 47.3139 38.2701 47.8139 38.2701 48.3375C38.2701 48.8728 38.3404 49.3698 38.4807 49.8198C38.6213 50.2728 38.8483 50.6698 39.1513 50.9992C39.4572 51.3316 39.8483 51.5904 40.3189 51.7728C40.7866 51.9536 41.3513 52.0475 42.0042 52.0454C43.3454 52.041 44.0513 51.7425 44.3395 51.5807C44.3907 51.5519 44.4395 51.5022 44.3786 51.3589L44.0757 50.5089C44.0289 50.3822 43.9007 50.4281 43.9007 50.4281C43.5683 50.5522 43.0977 50.7751 41.9948 50.7722C41.2772 50.771 40.7419 50.5584 40.4066 50.2251C40.0654 49.8839 39.8948 49.3869 39.8683 48.681L44.5154 48.6845C44.5154 48.6845 44.6377 48.6834 44.6504 48.5639C44.6554 48.5145 44.8095 47.611 44.5116 46.5669L44.5083 46.566ZM29.8613 50.566C29.6792 50.4207 29.6539 50.3851 29.5936 50.2907C29.5016 50.1486 29.4545 49.9466 29.4545 49.6878C29.4545 49.2819 29.5898 48.9878 29.8692 48.7907C29.8663 48.7913 30.2692 48.4436 31.2163 48.4554C31.6378 48.463 32.0584 48.4988 32.4751 48.5628V50.6716H32.4757C32.4757 50.6716 31.8874 50.7984 31.2227 50.8384C30.2786 50.8951 29.861 50.5666 29.8639 50.5675L29.8613 50.566ZM31.7083 47.3013C31.5201 47.2875 31.276 47.2807 30.9848 47.2807C30.5877 47.2807 30.2024 47.3301 29.8436 47.4272C29.4819 47.5248 29.1554 47.676 28.876 47.8772C28.5958 48.0771 28.3653 48.3387 28.2024 48.6419C28.038 48.9478 27.9542 49.3066 27.9542 49.7125C27.9542 50.1242 28.0257 50.4801 28.1669 50.7713C28.3052 51.0601 28.5135 51.3098 28.7727 51.4978C29.0307 51.6854 29.3492 51.8242 29.7169 51.9066C30.0816 51.9898 30.4933 52.0319 30.9463 52.0319C31.4227 52.0319 31.8963 51.9919 32.3551 51.9145C32.7459 51.8471 33.1352 51.7714 33.5227 51.6875C33.6774 51.6519 33.8492 51.6051 33.8492 51.6051C33.9639 51.576 33.9551 51.4534 33.9551 51.4534L33.9524 47.2181C33.9524 46.2886 33.7042 45.5975 33.2142 45.171C32.726 44.7445 32.0113 44.5298 31.0848 44.5298C30.7377 44.5298 30.176 44.5769 29.8407 44.6442C29.8407 44.6442 28.8289 44.8407 28.4113 45.1678C28.4113 45.1678 28.3195 45.2242 28.3695 45.3522L28.6989 46.2345C28.7398 46.3489 28.8513 46.3098 28.8513 46.3098C28.8513 46.3098 28.8863 46.296 28.9274 46.2716C29.8186 45.7863 30.948 45.801 30.948 45.801C31.448 45.801 31.8363 45.9025 32.0951 46.101C32.3483 46.2954 32.4774 46.5892 32.4774 47.2069V47.4031C32.0804 47.3454 31.7127 47.3122 31.7127 47.3122L31.7083 47.3013ZM69.0613 44.9101C69.068 44.8946 69.0715 44.8779 69.0716 44.861C69.0717 44.8441 69.0684 44.8274 69.0618 44.8118C69.0553 44.7962 69.0458 44.7821 69.0337 44.7703C69.0216 44.7585 69.0073 44.7492 68.9916 44.7431C68.9124 44.7131 68.518 44.6298 68.2151 44.611C67.6327 44.5745 67.3092 44.6728 67.018 44.8034C66.7304 44.9331 66.4122 45.1416 66.2357 45.3828L66.2351 44.8181C66.2351 44.7404 66.1801 44.6778 66.1019 44.6778H64.9136C64.8366 44.6778 64.7807 44.7404 64.7807 44.8181V51.7298C64.7808 51.7672 64.7956 51.803 64.822 51.8294C64.8484 51.8558 64.8842 51.8706 64.9216 51.8707H66.1392C66.1765 51.8706 66.2123 51.8558 66.2386 51.8293C66.265 51.8029 66.2798 51.7671 66.2798 51.7298V48.2592C66.2798 47.7945 66.331 47.3328 66.433 47.0416C66.5336 46.7536 66.6704 46.5239 66.8389 46.3592C66.9997 46.2002 67.1964 46.0821 67.4124 46.0151C67.6152 45.9569 67.8251 45.9274 68.036 45.9275C68.2786 45.9275 68.5448 45.9898 68.5448 45.9898C68.6342 45.9998 68.6839 45.9451 68.7142 45.8645C68.7939 45.6525 69.0201 45.0175 69.0642 44.891" fill="#FFFFFE"/>
<path fill-rule="evenodd" clip-rule="evenodd" d="M57.6885 41.7199C57.538 41.6744 57.3848 41.638 57.2299 41.611C57.0216 41.5763 56.8106 41.5599 56.5994 41.5622C55.7602 41.5622 55.0988 41.7993 54.6344 42.2675C54.1732 42.7322 53.8594 43.4402 53.702 44.3716L53.6452 44.686H52.592C52.592 44.686 52.4635 44.6808 52.4364 44.821L52.2635 45.7858C52.2514 45.8781 52.2911 45.9358 52.4147 45.9352H53.4399L52.3996 51.7419C52.3182 52.2096 52.2249 52.5943 52.1217 52.8858C52.0199 53.1734 51.9205 53.389 51.7982 53.5455C51.6796 53.6969 51.5673 53.8084 51.3735 53.8734C51.2135 53.9272 51.0294 53.9519 50.8276 53.9519C50.7152 53.9519 50.5658 53.9331 50.4555 53.911C50.3452 53.8893 50.2879 53.8646 50.2052 53.8299C50.2052 53.8299 50.0849 53.784 50.0376 53.9046C49.9991 54.0031 49.7258 54.7546 49.6935 54.8475C49.6605 54.9393 49.7067 55.0116 49.7649 55.0325C49.9014 55.0813 50.0029 55.1125 50.1888 55.1563C50.447 55.2172 50.6646 55.221 50.8685 55.221C51.2955 55.221 51.6846 55.161 52.0073 55.0446C52.332 54.9272 52.6147 54.7228 52.8647 54.446C53.1349 54.1475 53.3049 53.8349 53.4676 53.4084C53.6285 52.9858 53.7655 52.461 53.8752 51.8496L54.9205 45.9352H56.4488C56.4488 45.9352 56.5776 45.9399 56.6044 45.8002L56.7773 44.8355C56.7894 44.7431 56.7499 44.6855 56.6258 44.686H55.1426C55.1499 44.6525 55.2173 44.1308 55.3876 43.6396C55.4602 43.4299 55.597 43.2608 55.7129 43.1446C55.8211 43.0339 55.9544 42.951 56.1014 42.9028C56.2626 42.853 56.4306 42.8288 56.5994 42.831C56.7391 42.831 56.8761 42.8478 56.9805 42.8696C57.1244 42.9002 57.1802 42.9163 57.2179 42.9275C57.3691 42.9737 57.3894 42.929 57.4191 42.8558L57.7738 41.8816C57.8102 41.7769 57.7214 41.7328 57.6885 41.7199ZM36.9608 51.7543C36.9608 51.8319 36.9055 51.8952 36.8279 51.8952H35.5976C35.5197 51.8952 35.4644 51.8319 35.4644 51.7543V41.8519C35.4644 41.7746 35.5197 41.7119 35.5976 41.7119H36.8279C36.9055 41.7119 36.9608 41.7746 36.9608 41.8519V51.7543Z" fill="#FFFFFE"/>
</svg>
