<svg width="200" height="200" viewBox="0 0 200 200" fill="none" xmlns="http://www.w3.org/2000/svg">
<g filter="url(#filter0_d_201_1253)">
<rect x="50" y="40" width="100" height="100" rx="20" fill="white"/>
<path d="M121.468 70.3236C121.423 70.0004 121.141 69.8211 120.906 69.8016C120.674 69.7821 116.118 69.7129 116.118 69.7129C116.118 69.7129 112.307 66.0125 111.931 65.6361C111.555 65.2597 110.819 65.3733 110.534 65.4585C110.53 65.4603 109.818 65.6805 108.62 66.0516C108.419 65.4017 108.124 64.6027 107.703 63.8002C106.347 61.2114 104.36 59.8424 101.959 59.8389C101.956 59.8389 101.954 59.8389 101.95 59.8389C101.783 59.8389 101.618 59.8548 101.452 59.869C101.38 59.7838 101.309 59.7004 101.235 59.6187C100.189 58.5001 98.8485 57.955 97.2416 58.0029C94.1414 58.0917 91.0538 60.3307 88.5502 64.308C86.7888 67.1063 85.4482 70.622 85.0683 73.3439C81.5082 74.4465 79.0188 75.2171 78.9638 75.2349C77.1669 75.7995 77.1101 75.8545 76.8757 77.5485C76.7017 78.8286 72 115.185 72 115.185L111.402 122L128.479 117.755C128.479 117.755 121.512 70.6468 121.468 70.3236ZM106.647 66.6624C105.74 66.9429 104.708 67.2625 103.589 67.6088C103.566 66.0392 103.38 63.8552 102.648 61.9678C105.001 62.4134 106.159 65.075 106.647 66.6624ZM101.528 68.248C99.4628 68.8871 97.2096 69.585 94.9493 70.2846C95.585 67.8503 96.7906 65.4266 98.2715 63.8375C98.8219 63.2462 99.5924 62.5874 100.505 62.211C101.363 64.0008 101.549 66.5345 101.528 68.248ZM97.3037 60.0661C98.0317 60.0501 98.6443 60.21 99.1681 60.5544C98.33 60.9894 97.5203 61.6144 96.7604 62.4294C94.7913 64.5424 93.282 67.8218 92.6801 70.9859C90.8033 71.5665 88.9674 72.1365 87.277 72.6586C88.3442 67.678 92.5185 60.2046 97.3037 60.0661Z" fill="#95BF47"/>
<path d="M120.909 69.8034C120.676 69.7839 116.12 69.7147 116.12 69.7147C116.12 69.7147 112.31 66.0143 111.933 65.6379C111.793 65.4976 111.603 65.4248 111.404 65.3947L111.406 121.998L128.482 117.755C128.482 117.755 121.514 70.6486 121.47 70.3254C121.426 70.0022 121.142 69.8229 120.909 69.8034Z" fill="#5E8E3E"/>
<path d="M101.939 78.5836L99.9556 86.0037C99.9556 86.0037 97.7432 84.997 95.1207 85.1621C91.2747 85.4054 91.2338 87.8308 91.273 88.4398C91.4825 91.7584 100.213 92.4828 100.703 100.256C101.088 106.371 97.459 110.555 92.23 110.885C85.9533 111.281 82.498 107.579 82.498 107.579L83.828 101.922C83.828 101.922 87.3063 104.546 90.0904 104.37C91.9086 104.255 92.5584 102.776 92.4927 101.73C92.2193 97.4011 85.1099 97.6568 84.6607 90.5438C84.2825 84.5585 88.2137 78.4931 96.8873 77.9462C100.229 77.7314 101.939 78.5836 101.939 78.5836Z" fill="white"/>
</g>
<defs>
<filter id="filter0_d_201_1253" x="0" y="0" width="200" height="200" filterUnits="userSpaceOnUse" color-interpolation-filters="sRGB">
<feFlood flood-opacity="0" result="BackgroundImageFix"/>
<feColorMatrix in="SourceAlpha" type="matrix" values="0 0 0 0 0 0 0 0 0 0 0 0 0 0 0 0 0 0 127 0" result="hardAlpha"/>
<feOffset dy="10"/>
<feGaussianBlur stdDeviation="25"/>
<feColorMatrix type="matrix" values="0 0 0 0 0 0 0 0 0 0 0 0 0 0 0 0 0 0 0.2 0"/>
<feBlend mode="normal" in2="BackgroundImageFix" result="effect1_dropShadow_201_1253"/>
<feBlend mode="normal" in="SourceGraphic" in2="effect1_dropShadow_201_1253" result="shape"/>
</filter>
</defs>
</svg>
