<svg width="100" height="100" viewBox="0 0 100 100" fill="none" xmlns="http://www.w3.org/2000/svg">
<rect width="100" height="100" rx="20" fill="white"/>
<path d="M71.4675 30.3236C71.4231 30.0004 71.1408 29.8211 70.9065 29.8016C70.6739 29.7821 66.1178 29.7129 66.1178 29.7129C66.1178 29.7129 62.3073 26.0125 61.9309 25.6361C61.5546 25.2597 60.8194 25.3733 60.5335 25.4585C60.53 25.4603 59.818 25.6805 58.6195 26.0516C58.4189 25.4017 58.1241 24.6027 57.7033 23.8002C56.3468 21.2114 54.3599 19.8424 51.9593 19.8389C51.9557 19.8389 51.9539 19.8389 51.9504 19.8389C51.7835 19.8389 51.6183 19.8548 51.4515 19.869C51.3805 19.7838 51.3094 19.7004 51.2349 19.6187C50.189 18.5001 48.8485 17.955 47.2416 18.0029C44.1414 18.0917 41.0538 20.3307 38.5502 24.308C36.7888 27.1063 35.4482 30.622 35.0683 33.3439C31.5082 34.4465 29.0188 35.2171 28.9638 35.2349C27.1669 35.7995 27.1101 35.8545 26.8757 37.5485C26.7017 38.8286 22 75.1854 22 75.1854L61.4018 82L78.4793 77.7546C78.4793 77.7546 71.5119 30.6468 71.4675 30.3236ZM56.6468 26.6624C55.7395 26.9429 54.7078 27.2625 53.5892 27.6088C53.5662 26.0392 53.3797 23.8552 52.6482 21.9678C55.0009 22.4134 56.1585 25.075 56.6468 26.6624ZM51.5278 28.248C49.4628 28.8871 47.2096 29.585 44.9493 30.2846C45.585 27.8503 46.7906 25.4266 48.2715 23.8375C48.8219 23.2462 49.5924 22.5874 50.5051 22.211C51.3627 24.0008 51.5491 26.5345 51.5278 28.248ZM47.3037 20.0661C48.0317 20.0501 48.6443 20.21 49.1681 20.5544C48.33 20.9894 47.5203 21.6144 46.7604 22.4294C44.7913 24.5424 43.282 27.8218 42.6801 30.9859C40.8033 31.5665 38.9674 32.1365 37.277 32.6586C38.3442 27.678 42.5185 20.2046 47.3037 20.0661Z" fill="#95BF47"/>
<path d="M70.9089 29.8033C70.6764 29.7838 66.1202 29.7145 66.1202 29.7145C66.1202 29.7145 62.3099 26.0142 61.9335 25.6378C61.7932 25.4975 61.6032 25.4247 61.4043 25.3945L61.4061 81.9982L78.4818 77.7545C78.4818 77.7545 71.5145 30.6485 71.4701 30.3253C71.4256 30.0021 71.1416 29.8228 70.9089 29.8033Z" fill="#5E8E3E"/>
<path d="M51.9388 38.5838L49.9556 46.0038C49.9556 46.0038 47.7432 44.9971 45.1207 45.1622C41.2747 45.4055 41.2338 47.8309 41.273 48.44C41.4825 51.7585 50.2129 52.483 50.7031 60.2564C51.0884 66.3715 47.459 70.5548 42.23 70.885C35.9533 71.281 32.498 67.5789 32.498 67.5789L33.828 61.9219C33.828 61.9219 37.3063 64.5462 40.0904 64.3704C41.9086 64.255 42.5584 62.776 42.4927 61.7301C42.2193 57.4013 35.1099 57.657 34.6607 50.544C34.2825 44.5586 38.2137 38.4932 46.8873 37.9463C50.2289 37.7315 51.9388 38.5838 51.9388 38.5838Z" fill="white"/>
</svg>
