<svg width="180" height="180" viewBox="0 0 180 180" fill="none" xmlns="http://www.w3.org/2000/svg">
<mask id="mask0_242_6804" style="mask-type:alpha" maskUnits="userSpaceOnUse" x="1" y="28" width="178" height="125">
<path d="M1 28H179V152.338H1V28Z" fill="#00A1E0"/>
</mask>
<g mask="url(#mask0_242_6804)">
<path fill-rule="evenodd" clip-rule="evenodd" d="M74.9093 41.6118C80.655 35.6305 88.6519 31.9265 97.4865 31.9265C109.266 31.9265 119.475 38.4706 124.972 48.2214C129.851 46.0401 135.136 44.9139 140.481 44.9166C161.684 44.9166 178.895 62.2585 178.895 83.6578C178.895 105.057 161.684 122.399 140.481 122.399C137.89 122.399 135.364 122.139 132.89 121.646C128.08 130.219 118.886 136.043 108.415 136.043C104.152 136.052 99.9439 135.085 96.1122 133.216C91.2369 144.669 79.8828 152.718 66.6637 152.718C52.8556 152.718 41.1417 144.014 36.6262 131.777C34.6165 132.201 32.568 132.414 30.514 132.413C14.0883 132.413 0.803711 118.932 0.803711 102.375C0.803711 91.2503 6.78503 81.565 15.6589 76.3297C13.7763 71.9929 12.8072 67.3148 12.8122 62.587C12.8122 43.4782 28.3217 28.0341 47.4305 28.0341C58.621 28.0341 68.6335 33.3675 74.9158 41.6459" fill="#00A1E0"/>
</g>
<path fill-rule="evenodd" clip-rule="evenodd" d="M26.7446 92.6559C26.6327 92.9477 26.7845 93.0086 26.8205 93.0603C27.1549 93.3024 27.4945 93.4778 27.8348 93.6748C29.6541 94.6368 31.3686 94.9182 33.1617 94.9182C36.8134 94.9182 39.0842 92.9746 39.0842 89.8465V89.785C39.0842 86.8925 36.5189 85.8389 34.1237 85.0863L33.8103 84.9849C31.9975 84.3972 30.4335 83.8855 30.4335 82.6944V82.6336C30.4335 81.6127 31.3497 80.8601 32.7632 80.8601C34.3338 80.8601 36.2054 81.383 37.403 82.0446C37.403 82.0446 37.7577 82.2736 37.8866 81.9314C37.9566 81.7462 38.5672 80.1121 38.6326 79.9289C38.702 79.7371 38.5803 79.5925 38.4553 79.5179C37.081 78.6803 35.1832 78.1109 33.22 78.1109L32.8555 78.1122C29.5114 78.1122 27.1752 80.1344 27.1752 83.0269V83.089C27.1752 86.1386 29.7536 87.1333 32.1618 87.8204L32.5492 87.9408C34.303 88.4801 35.8213 88.9486 35.8213 90.1789V90.2404C35.8213 91.3726 34.8331 92.2168 33.2494 92.2168C32.6336 92.2168 30.671 92.2063 28.5442 90.8621C28.287 90.7123 28.1404 90.6043 27.9421 90.4832C27.8374 90.4198 27.5757 90.3052 27.4618 90.6481L26.742 92.6506M80.2074 92.6506C80.0955 92.9425 80.2473 93.0034 80.2846 93.0551C80.6177 93.2972 80.9587 93.4726 81.299 93.6696C83.1182 94.6315 84.8328 94.9129 86.6259 94.9129C90.2775 94.9129 92.5483 92.9693 92.5483 89.8413V89.7797C92.5483 86.8872 89.9895 85.8336 87.5878 85.0811L87.2744 84.9796C85.4617 84.392 83.8976 83.8802 83.8976 82.6892V82.6283C83.8976 81.6074 84.8138 80.8549 86.2273 80.8549C87.7979 80.8549 89.663 81.3777 90.8671 82.0394C90.8671 82.0394 91.2218 82.2684 91.3514 81.9261C91.4207 81.7409 92.032 80.1069 92.0909 79.9236C92.1609 79.7319 92.0385 79.5873 91.9142 79.5127C90.5399 78.675 88.6421 78.1057 86.6789 78.1057L86.3137 78.107C82.9697 78.107 80.6334 80.1291 80.6334 83.0216V83.0838C80.6334 86.1334 83.2118 87.1281 85.62 87.8152L86.0068 87.9356C87.7672 88.4748 89.2788 88.9434 89.2788 90.1737V90.2352C89.2788 91.3673 88.2907 92.2115 86.707 92.2115C86.0899 92.2115 84.1221 92.2011 82.0018 90.8569C81.7446 90.707 81.5941 90.6036 81.3991 90.478C81.333 90.4361 81.0248 90.3157 80.9194 90.6429L80.1995 92.6454M116.716 86.5201C116.716 88.287 116.386 89.6809 115.741 90.6691C115.097 91.6442 114.124 92.1219 112.77 92.1219C111.415 92.1219 110.446 91.6481 109.812 90.6756C109.172 89.694 108.85 88.2936 108.85 86.5267C108.85 84.7597 109.174 83.3724 109.812 82.3973C110.445 81.4288 111.408 80.9642 112.77 80.9642C114.131 80.9642 115.099 81.4334 115.741 82.3973C116.39 83.3724 116.716 84.7597 116.716 86.5267M119.765 83.2481C119.465 82.2337 119 81.3437 118.378 80.5977C117.756 79.8517 116.971 79.2496 116.035 78.8177C115.106 78.3825 114.006 78.1633 112.763 78.1633C111.52 78.1633 110.427 78.3838 109.491 78.8177C108.562 79.2522 107.77 79.8517 107.148 80.5977C106.528 81.3437 106.062 82.2337 105.761 83.2481C105.463 84.2558 105.312 85.3553 105.312 86.5267C105.312 87.6981 105.463 88.7975 105.761 89.8053C106.06 90.8196 106.527 91.7096 107.148 92.4556C107.771 93.2017 108.562 93.7972 109.491 94.2225C110.427 94.6466 111.526 94.8626 112.763 94.8626C114 94.8626 115.099 94.6466 116.029 94.2225C116.958 93.7985 117.75 93.2017 118.371 92.4556C118.992 91.7096 119.458 90.8196 119.759 89.8053C120.056 88.7975 120.207 87.6981 120.207 86.5267C120.207 85.3618 120.056 84.2558 119.759 83.2481M144.823 91.6245C144.723 91.3281 144.433 91.44 144.433 91.44C143.99 91.6095 143.517 91.7665 143.013 91.8451C142.505 91.9249 141.94 91.9648 141.345 91.9648C139.872 91.9648 138.694 91.5257 137.856 90.656C137.012 89.7856 136.541 88.3852 136.548 86.4874C136.552 84.7597 136.97 83.464 137.719 82.4693C138.459 81.4877 139.597 80.9772 141.102 80.9772C142.359 80.9772 143.321 81.1232 144.329 81.4386C144.329 81.4386 144.567 81.5427 144.682 81.2279C144.95 80.4884 145.147 79.9583 145.435 79.1469C145.516 78.9145 145.317 78.8164 145.244 78.7882C144.849 78.6338 143.916 78.3805 143.209 78.2739C142.548 78.1731 141.782 78.1207 140.918 78.1207C139.636 78.1207 138.497 78.34 137.522 78.7745C136.547 79.2084 135.722 79.8085 135.068 80.5545C134.414 81.3005 133.916 82.1905 133.583 83.2049C133.252 84.2127 133.085 85.3186 133.085 86.49C133.085 89.016 133.766 91.0643 135.114 92.5629C136.462 94.0681 138.491 94.8272 141.134 94.8272C142.698 94.8272 144.302 94.5111 145.454 94.055C145.454 94.055 145.673 93.949 145.578 93.6925L144.825 91.6245M150.159 84.8186C150.305 83.837 150.574 83.019 150.996 82.3842C151.629 81.4157 152.593 80.8856 153.948 80.8856C155.302 80.8856 156.199 81.4183 156.84 82.3842C157.266 83.0223 157.452 83.8697 157.521 84.8186L150.126 84.8173L150.159 84.8186ZM160.433 82.6591C160.173 81.684 159.53 80.6958 159.111 80.2443C158.444 79.531 157.796 79.0271 157.148 78.7522C156.213 78.3545 155.206 78.1504 154.19 78.1521C152.901 78.1521 151.729 78.3701 150.78 78.8131C149.832 79.2594 149.033 79.8667 148.405 80.6258C147.777 81.3849 147.306 82.2815 147.005 83.3089C146.703 84.3233 146.552 85.4357 146.552 86.6006C146.552 87.7916 146.709 88.8976 147.02 89.8988C147.333 90.9066 147.838 91.7901 148.518 92.523C149.199 93.2625 150.069 93.8384 151.116 94.2441C152.157 94.6466 153.42 94.8554 154.866 94.8508C157.85 94.841 159.421 94.1767 160.062 93.8168C160.177 93.7527 160.285 93.6421 160.15 93.3234L159.476 91.4321C159.372 91.1501 159.087 91.2522 159.087 91.2522C158.347 91.5283 157.3 92.0244 154.846 92.0178C153.243 92.0152 152.059 91.5421 151.313 90.8006C150.553 90.0415 150.174 88.9355 150.115 87.365L160.455 87.3728C160.455 87.3728 160.727 87.3702 160.755 87.1045C160.766 86.9946 161.109 84.9842 160.447 82.661L160.433 82.6591ZM67.5066 84.8186C67.6525 83.837 67.9221 83.019 68.3442 82.3842C68.9777 81.4157 69.941 80.8856 71.2956 80.8856C72.6502 80.8856 73.5468 81.4183 74.1881 82.3842C74.6128 83.0223 74.7987 83.8697 74.8687 84.8186L67.4739 84.8173L67.5066 84.8186ZM77.7808 82.6591C77.5217 81.684 76.8777 80.6958 76.4589 80.2443C75.7914 79.531 75.1436 79.0271 74.4957 78.7522C73.5603 78.3545 72.5541 78.1504 71.5377 78.1521C70.2486 78.1521 69.0772 78.3701 68.1283 78.8131C67.1794 79.2594 66.381 79.8667 65.7528 80.6258C65.1265 81.3849 64.6533 82.2815 64.3523 83.3089C64.0519 84.3233 63.9008 85.4357 63.9008 86.6006C63.9008 87.7916 64.0572 88.8976 64.3693 89.8988C64.6821 90.9066 65.1873 91.7901 65.8614 92.523C66.542 93.2625 67.4123 93.8384 68.4594 94.2441C69.4999 94.6466 70.7564 94.8554 72.2092 94.8508C75.1933 94.841 76.7639 94.1767 77.4052 93.8168C77.5191 93.7527 77.6277 93.6421 77.4922 93.3234L76.8182 91.4321C76.7141 91.1501 76.4288 91.2522 76.4288 91.2522C75.6893 91.5283 74.6423 92.0244 72.1882 92.0178C70.5915 92.0152 69.4004 91.5421 68.6544 90.8006C67.8953 90.0415 67.5157 88.9355 67.4568 87.365L77.7965 87.3728C77.7965 87.3728 78.0688 87.3702 78.0969 87.1045C78.108 86.9946 78.451 84.9842 77.788 82.661L77.7808 82.6591ZM45.1911 91.5591C44.786 91.2358 44.7298 91.1566 44.5956 90.9466C44.3908 90.6305 44.2861 90.1809 44.2861 89.605C44.2861 88.7019 44.5871 88.0475 45.2088 87.6091C45.2023 87.6104 46.0988 86.8368 48.206 86.863C49.1439 86.8798 50.0797 86.9596 51.0069 87.1019V91.794H51.0082C51.0082 91.794 49.6994 92.0761 48.2204 92.1651C46.1197 92.2914 45.1905 91.5604 45.197 91.5624L45.1911 91.5591ZM49.3008 84.2951C48.882 84.2644 48.3389 84.2493 47.691 84.2493C46.8075 84.2493 45.9503 84.3592 45.1519 84.5752C44.3469 84.7925 43.6205 85.1288 42.9989 85.5765C42.3755 86.0212 41.8627 86.6034 41.5003 87.2779C41.1344 87.9585 40.9479 88.7569 40.9479 89.66C40.9479 90.5762 41.1069 91.368 41.4211 92.0159C41.7289 92.6585 42.1922 93.2141 42.7692 93.6323C43.3431 94.0498 44.0518 94.3587 44.8698 94.5419C45.6813 94.7271 46.5975 94.8207 47.6053 94.8207C48.6654 94.8207 49.719 94.7317 50.7399 94.5596C51.6094 94.4096 52.4756 94.2412 53.3379 94.0544C53.6821 93.9752 54.0643 93.8711 54.0643 93.8711C54.3195 93.8063 54.2999 93.5334 54.2999 93.5334L54.294 84.1099C54.294 82.042 53.7417 80.5041 52.6514 79.5552C51.5651 78.6063 49.9749 78.1286 47.9135 78.1286C47.1413 78.1286 45.8914 78.2333 45.1453 78.3832C45.1453 78.3832 42.8941 78.8203 41.9649 79.548C41.9649 79.548 41.7607 79.6737 41.872 79.9583L42.6049 81.9216C42.6959 82.1761 42.9439 82.0891 42.9439 82.0891C42.9439 82.0891 43.0218 82.0583 43.1134 82.004C45.0962 80.9242 47.6092 80.957 47.6092 80.957C48.7217 80.957 49.5855 81.1827 50.1614 81.6245C50.7248 82.057 51.0121 82.7108 51.0121 84.085V84.5215C50.1287 84.3933 49.3107 84.3193 49.3107 84.3193L49.3008 84.2951ZM132.411 78.9747C132.426 78.9402 132.434 78.9031 132.434 78.8655C132.434 78.8279 132.427 78.7907 132.412 78.756C132.398 78.7213 132.377 78.6899 132.35 78.6636C132.323 78.6373 132.291 78.6167 132.256 78.603C132.08 78.5363 131.202 78.3511 130.528 78.3092C129.233 78.2281 128.513 78.4466 127.865 78.7372C127.225 79.0258 126.517 79.4898 126.124 80.0264L126.123 78.7699C126.123 78.5971 126.001 78.4578 125.826 78.4578H123.183C123.011 78.4578 122.887 78.5971 122.887 78.7699V94.1486C122.887 94.2317 122.92 94.3113 122.979 94.3701C123.038 94.4288 123.117 94.4619 123.2 94.4621H125.91C125.993 94.4619 126.072 94.4288 126.131 94.37C126.189 94.3112 126.222 94.2316 126.222 94.1486V86.4265C126.222 85.3926 126.336 84.3651 126.563 83.7173C126.787 83.0766 127.091 82.5655 127.466 82.199C127.824 81.8451 128.262 81.5825 128.742 81.4334C129.194 81.3039 129.661 81.2383 130.13 81.2384C130.67 81.2384 131.262 81.3771 131.262 81.3771C131.461 81.3993 131.572 81.2776 131.639 81.0983C131.816 80.6265 132.32 79.2136 132.418 78.9322" fill="#FFFFFE"/>
<path fill-rule="evenodd" clip-rule="evenodd" d="M107.107 71.877C106.772 71.7758 106.431 71.6949 106.087 71.6349C105.623 71.5575 105.154 71.5211 104.684 71.5262C102.817 71.5262 101.345 72.0537 100.311 73.0955C99.2853 74.1295 98.5871 75.7046 98.237 77.7772L98.1107 78.4767H95.7672C95.7672 78.4767 95.4812 78.4649 95.421 78.7771L95.0362 80.9236C95.0094 81.1291 95.0978 81.2573 95.3726 81.256H97.6539L95.3392 94.1761C95.158 95.2166 94.9505 96.0726 94.7208 96.7211C94.4944 97.3611 94.2732 97.8408 94.001 98.1889C93.7372 98.5259 93.4872 98.774 93.056 98.9186C92.7 99.0383 92.2903 99.0933 91.8414 99.0933C91.5914 99.0933 91.259 99.0514 91.0136 99.0024C90.7682 98.9539 90.6406 98.899 90.4567 98.8217C90.4567 98.8217 90.189 98.7196 90.0837 98.988C89.9979 99.2072 89.39 100.879 89.318 101.086C89.2447 101.29 89.3474 101.451 89.477 101.498C89.7807 101.606 90.0064 101.676 90.42 101.773C90.9946 101.909 91.4789 101.917 91.9324 101.917C92.8826 101.917 93.7484 101.784 94.4662 101.524C95.1887 101.263 95.8176 100.809 96.3739 100.193C96.9753 99.5285 97.3535 98.8329 97.7154 97.884C98.0734 96.9436 98.3783 95.7761 98.6224 94.4156L100.948 81.256H104.349C104.349 81.256 104.635 81.2665 104.695 80.9556L105.079 78.8092C105.106 78.6037 105.019 78.4754 104.742 78.4767H101.442C101.459 78.4021 101.609 77.2412 101.987 76.1483C102.149 75.6817 102.453 75.3054 102.711 75.047C102.952 74.8008 103.248 74.6162 103.576 74.509C103.934 74.3981 104.308 74.3443 104.684 74.3493C104.994 74.3493 105.299 74.3867 105.532 74.4351C105.852 74.5031 105.976 74.5391 106.06 74.564C106.396 74.6667 106.441 74.5673 106.507 74.4043L107.297 72.2369C107.378 72.0039 107.18 71.9058 107.107 71.877ZM60.9878 94.2036C60.9878 94.3763 60.8648 94.517 60.6921 94.517H57.9547C57.7812 94.517 57.6582 94.3763 57.6582 94.2036V72.1708C57.6582 71.9987 57.7812 71.8593 57.9547 71.8593H60.6921C60.8648 71.8593 60.9878 71.9987 60.9878 72.1708V94.2036Z" fill="#FFFFFE"/>
</svg>
