<svg width="180" height="180" viewBox="0 0 180 180" fill="none" xmlns="http://www.w3.org/2000/svg">
<path d="M50.7255 75.0927C50.7255 77.3077 50.9649 79.1037 51.384 80.4208C51.8629 81.7379 52.4616 83.1746 53.2997 84.7312C53.5991 85.2101 53.7188 85.689 53.7188 86.1081C53.7188 86.7068 53.3596 87.3054 52.5813 87.9041L48.8098 90.4185C48.271 90.7777 47.7322 90.9573 47.2532 90.9573C46.6546 90.9573 46.0559 90.6579 45.4572 90.1191C44.6191 89.2211 43.9007 88.2633 43.3021 87.3054C42.7034 86.2877 42.1047 85.1502 41.4462 83.7733C36.7766 89.281 30.9097 92.0349 23.8455 92.0349C18.8167 92.0349 14.8057 90.5981 11.8722 87.7245C8.9388 84.8509 7.44214 81.0195 7.44214 76.2302C7.44214 71.1415 9.23813 67.0107 12.89 63.8977C16.5418 60.7846 21.391 59.2281 27.5572 59.2281C29.5927 59.2281 31.688 59.4077 33.903 59.7071C36.1181 60.0064 38.393 60.4853 40.7877 61.0241V56.6539C40.7877 52.104 39.8298 48.9311 37.974 47.0753C36.0582 45.2194 32.8255 44.3214 28.2157 44.3214C26.1204 44.3214 23.9652 44.5609 21.7502 45.0997C19.5351 45.6385 17.3799 46.297 15.2846 47.1351C14.3268 47.5542 13.6084 47.7937 13.1893 47.9134C12.7702 48.0331 12.4709 48.093 12.2314 48.093C11.3933 48.093 10.9743 47.4943 10.9743 46.2371V43.3037C10.9743 42.3458 11.094 41.6274 11.3933 41.2084C11.6926 40.7893 12.2314 40.3702 13.0696 39.9512C15.1649 38.8736 17.6793 37.9756 20.6127 37.2572C23.5462 36.4789 26.6592 36.1197 29.9519 36.1197C37.076 36.1197 42.2843 37.7361 45.6368 40.9689C48.9295 44.2017 50.6057 49.1107 50.6057 55.696V75.0927H50.7255ZM26.4198 84.1924C28.3953 84.1924 30.4308 83.8332 32.586 83.1148C34.7412 82.3964 36.6569 81.0793 38.2733 79.2833C39.2311 78.1459 39.9495 76.8887 40.3087 75.4519C40.6679 74.0151 40.9074 72.279 40.9074 70.2435V67.7291C39.1713 67.3101 37.3154 66.9509 35.3997 66.7114C33.484 66.4719 31.6281 66.3522 29.7723 66.3522C25.7612 66.3522 22.8278 67.1305 20.8522 68.7469C18.8766 70.3633 17.9187 72.6382 17.9187 75.6315C17.9187 78.4452 18.6371 80.5405 20.1338 81.9773C21.5706 83.474 23.6659 84.1924 26.4198 84.1924ZM74.4924 90.6579C73.4148 90.6579 72.6964 90.4783 72.2175 90.0593C71.7386 89.7001 71.3195 88.8619 70.9603 87.7245L56.8917 41.4478C56.5325 40.2505 56.3529 39.4722 56.3529 39.0532C56.3529 38.0953 56.8318 37.5565 57.7897 37.5565H63.6566C64.7941 37.5565 65.5723 37.7361 65.9914 38.1552C66.4703 38.5144 66.8295 39.3525 67.1887 40.49L77.2463 80.1215L86.5854 40.49C86.8847 39.2926 87.2439 38.5144 87.7229 38.1552C88.2018 37.796 89.0399 37.5565 90.1175 37.5565H94.9068C96.0443 37.5565 96.8225 37.7361 97.3015 38.1552C97.7804 38.5144 98.1995 39.3525 98.4389 40.49L107.898 80.6004L118.255 40.49C118.614 39.2926 119.033 38.5144 119.452 38.1552C119.931 37.796 120.709 37.5565 121.787 37.5565H127.354C128.312 37.5565 128.851 38.0355 128.851 39.0532C128.851 39.3525 128.791 39.6518 128.731 40.011C128.671 40.3702 128.552 40.8492 128.312 41.5077L113.884 87.7843C113.525 88.9817 113.106 89.7599 112.627 90.1191C112.148 90.4783 111.37 90.7178 110.352 90.7178H105.204C104.066 90.7178 103.288 90.5382 102.809 90.1191C102.33 89.7001 101.911 88.9218 101.672 87.7245L92.3924 49.1107L83.173 87.6646C82.8737 88.8619 82.5145 89.6402 82.0356 90.0593C81.5566 90.4783 80.7185 90.6579 79.6409 90.6579H74.4924ZM151.421 92.2743C148.308 92.2743 145.195 91.9151 142.201 91.1967C139.208 90.4783 136.873 89.7001 135.317 88.8021C134.359 88.2633 133.7 87.6646 133.461 87.1258C133.221 86.587 133.102 85.9884 133.102 85.4496V82.3964C133.102 81.1392 133.58 80.5405 134.478 80.5405C134.838 80.5405 135.197 80.6004 135.556 80.7201C135.915 80.8399 136.454 81.0793 137.053 81.3188C139.088 82.2168 141.303 82.9352 143.638 83.4141C146.033 83.893 148.367 84.1325 150.762 84.1325C154.534 84.1325 157.467 83.474 159.503 82.1569C161.538 80.8399 162.616 78.9241 162.616 76.4696C162.616 74.7934 162.077 73.4164 160.999 72.279C159.922 71.1415 157.886 70.1238 154.953 69.1659L146.272 66.4719C141.902 65.095 138.669 63.0596 136.693 60.3656C134.718 57.7315 133.7 54.798 133.7 51.685C133.7 49.1706 134.239 46.9555 135.317 45.0398C136.394 43.1241 137.831 41.4478 139.627 40.1308C141.423 38.7538 143.458 37.7361 145.853 37.0177C148.248 36.2993 150.762 36 153.396 36C154.713 36 156.09 36.0599 157.407 36.2395C158.784 36.4191 160.041 36.6585 161.299 36.898C162.496 37.1973 163.633 37.4967 164.711 37.8559C165.789 38.2151 166.627 38.5743 167.225 38.9334C168.063 39.4124 168.662 39.8913 169.021 40.4301C169.381 40.909 169.56 41.5676 169.56 42.4057V45.2194C169.56 46.4766 169.081 47.1351 168.183 47.1351C167.704 47.1351 166.926 46.8957 165.908 46.4167C162.496 44.8602 158.664 44.082 154.414 44.082C151.002 44.082 148.308 44.6207 146.452 45.7582C144.596 46.8957 143.638 48.6318 143.638 51.0863C143.638 52.7626 144.237 54.1994 145.434 55.3368C146.631 56.4743 148.846 57.6117 152.019 58.6295L160.52 61.3234C164.831 62.7004 167.944 64.6161 169.8 67.0706C171.655 69.5251 172.553 72.3388 172.553 75.4519C172.553 78.0261 172.015 80.3609 170.997 82.3964C169.919 84.4318 168.483 86.2278 166.627 87.6646C164.771 89.1613 162.556 90.2389 159.981 91.0171C157.288 91.8553 154.474 92.2743 151.421 92.2743Z" fill="white"/>
<path fill-rule="evenodd" clip-rule="evenodd" d="M162.736 121.369C143.04 135.916 114.424 143.639 89.8186 143.639C55.3356 143.639 24.265 130.888 0.797429 109.695C-1.05843 108.019 0.61783 105.744 2.83288 107.061C28.2162 121.788 59.5263 130.708 91.9139 130.708C113.765 130.708 137.772 126.158 159.862 116.819C163.155 115.322 165.969 118.974 162.736 121.369Z" fill="#FF9900"/>
<path fill-rule="evenodd" clip-rule="evenodd" d="M170.937 112.03C168.422 108.797 154.294 110.473 147.888 111.252C145.973 111.491 145.673 109.815 147.409 108.558C158.664 100.655 177.163 102.93 179.318 105.564C181.473 108.258 178.719 126.757 168.183 135.617C166.567 136.994 165.01 136.276 165.728 134.48C168.123 128.553 173.451 115.203 170.937 112.03Z" fill="#FF9900"/>
</svg>
