<svg width="180" height="180" viewBox="0 0 180 180" fill="none" xmlns="http://www.w3.org/2000/svg">
<path d="M130.297 52.4919C130.213 51.8758 129.675 51.534 129.228 51.4968C128.785 51.4596 120.099 51.3276 120.099 51.3276C120.099 51.3276 112.836 44.2739 112.118 43.5563C111.401 42.8388 110 43.0554 109.455 43.2179C109.448 43.2213 108.091 43.641 105.806 44.3484C105.423 43.1096 104.861 41.5864 104.059 40.0566C101.474 35.1217 97.6861 32.5121 93.1098 32.5053C93.1031 32.5053 93.0997 32.5053 93.093 32.5053C92.7747 32.5053 92.46 32.5358 92.142 32.5628C92.0065 32.4004 91.8711 32.2413 91.729 32.0856C89.7353 29.9533 87.18 28.9142 84.1168 29.0055C78.2071 29.1748 72.3212 33.4429 67.5488 41.0246C64.1912 46.3589 61.6357 53.0606 60.9114 58.2493C54.125 60.3512 49.3797 61.82 49.2748 61.854C45.8494 62.9302 45.7412 63.0352 45.2944 66.2643C44.9627 68.7045 36 138.01 36 138.01L111.11 151L143.664 142.907C143.664 142.907 130.382 53.108 130.297 52.4919ZM102.046 45.5127C100.316 46.0475 98.3493 46.6567 96.217 47.3167C96.173 44.3247 95.8176 40.1615 94.4232 36.5636C98.9079 37.4131 101.115 42.4868 102.046 45.5127ZM92.2873 48.5352C88.351 49.7536 84.0558 51.0838 79.7472 52.4175C80.9588 47.777 83.2571 43.1569 86.08 40.1276C87.1292 39.0005 88.5981 37.7448 90.3378 37.0273C91.9726 40.439 92.328 45.269 92.2873 48.5352ZM84.2351 32.9385C85.6229 32.9081 86.7906 33.2127 87.7892 33.8693C86.1916 34.6986 84.6481 35.89 83.1996 37.4436C79.4458 41.4714 76.5689 47.7229 75.4215 53.7544C71.8438 54.8612 68.344 55.9478 65.1218 56.9429C67.1562 47.4487 75.1134 33.2026 84.2351 32.9385Z" fill="#95BF47"/>
<path d="M129.232 51.5005C128.789 51.4633 120.104 51.3313 120.104 51.3313C120.104 51.3313 112.841 44.2776 112.123 43.56C111.856 43.2926 111.493 43.1539 111.114 43.0963L111.118 150.997L143.668 142.908C143.668 142.908 130.387 53.1117 130.302 52.4956C130.217 51.8795 129.676 51.5377 129.232 51.5005Z" fill="#5E8E3E"/>
<path d="M93.0707 68.2374L89.2901 82.3818C89.2901 82.3818 85.0728 80.4628 80.0736 80.7775C72.7422 81.2413 72.6643 85.8647 72.739 87.0258C73.1383 93.3517 89.7807 94.7327 90.715 109.551C91.4495 121.208 84.5311 129.182 74.5633 129.812C62.5983 130.566 56.0117 123.509 56.0117 123.509L58.5469 112.726C58.5469 112.726 65.1774 117.728 70.4846 117.393C73.9506 117.173 75.1893 114.354 75.0641 112.36C74.5429 104.108 60.9906 104.596 60.1343 91.0365C59.4133 79.6269 66.9072 68.0647 83.4412 67.0222C89.8112 66.6127 93.0707 68.2374 93.0707 68.2374Z" fill="white"/>
</svg>
