<svg width="180" height="180" viewBox="0 0 180 180" fill="none" xmlns="http://www.w3.org/2000/svg">
<path d="M30.2405 142.069L67.4329 36.5234C67.835 35.2166 68.7396 34.1109 69.8454 33.3068C70.9511 32.5026 72.2578 32.1005 73.6651 32H106.535C107.038 32 107.44 32.1005 107.842 32.3016C108.244 32.5026 108.646 32.8042 108.847 33.2062C109.149 33.6083 109.249 34.0104 109.35 34.513C109.45 35.0156 109.35 35.4177 109.149 35.9203L70.348 145.387C70.0464 146.09 69.5438 146.693 68.9407 147.095C68.3376 147.497 67.6339 147.699 66.8298 147.699H34.3618C33.6582 147.799 32.9545 147.598 32.3514 147.296C31.7483 146.995 31.1452 146.593 30.7431 145.99C30.341 145.387 30.0394 144.783 30.0394 144.08C29.9389 143.477 30.0394 142.773 30.2405 142.069Z" fill="url(#paint0_linear_242_6801)"/>
<path d="M106.332 145.788L70.7483 111.712C70.4467 111.411 70.2457 111.008 70.1452 110.606C70.0446 110.204 70.1452 109.802 70.2457 109.4C70.4467 108.998 70.6478 108.696 71.0498 108.395C71.4519 108.194 71.854 107.993 72.2561 107.993H113.67L129.251 148H111.358C109.448 148 107.639 147.196 106.332 145.788Z" fill="url(#paint1_linear_242_6801)"/>
<path d="M111.76 147.9H144.027C144.831 147.9 145.635 147.699 146.339 147.296C147.043 146.894 147.646 146.392 148.148 145.688C148.651 144.984 148.952 144.281 149.053 143.477C149.153 142.673 149.053 141.868 148.852 141.064L111.76 35.9203C111.358 34.8146 110.654 33.8094 109.649 33.1057C108.644 32.4021 107.538 32 106.332 32H73.4619C75.3718 32 76.7791 33.7088 77.5832 35.6187L114.173 141.366C114.575 142.572 114.474 143.778 114.072 144.984C113.569 146.291 112.765 147.296 111.76 147.9Z" fill="url(#paint2_linear_242_6801)"/>
<defs>
<linearGradient id="paint0_linear_242_6801" x1="45.7508" y1="147.432" x2="93.1658" y2="31.6226" gradientUnits="userSpaceOnUse">
<stop stop-color="#0078D3"/>
<stop offset="1" stop-color="#114D8F"/>
</linearGradient>
<linearGradient id="paint1_linear_242_6801" x1="93.3207" y1="128.113" x2="110.018" y2="128.113" gradientUnits="userSpaceOnUse">
<stop stop-color="#0078D3"/>
<stop offset="1" stop-color="#0065B1"/>
</linearGradient>
<linearGradient id="paint2_linear_242_6801" x1="111.28" y1="32.0632" x2="111.28" y2="147.937" gradientUnits="userSpaceOnUse">
<stop stop-color="#3CCAF3"/>
<stop offset="1" stop-color="#2996E1"/>
</linearGradient>
</defs>
</svg>
